<?xml version="1.0" standalone="no"?>
<svg viewBox="0 0 200 200" xmlns="http://www.w3.org/2000/svg">
  <path fill="#FFECE5" d="M32.8,-58.9C43.1,-50.9,52.3,-43.2,58.1,-33.4C63.9,-23.7,66.3,-11.8,69.7,1.9C73.1,15.7,77.4,31.4,72.8,43.3C68.2,55.2,54.7,63.3,41.1,67C27.5,70.7,13.7,69.9,-0.4,70.6C-14.6,71.3,-29.1,73.5,-36.3,66.1C-43.5,58.7,-43.3,41.8,-45.9,29.2C-48.5,16.6,-53.9,8.3,-58,-2.4C-62.1,-13,-64.9,-26,-58.3,-31.7C-51.6,-37.3,-35.6,-35.6,-24.3,-43C-13,-50.3,-6.5,-66.8,2.4,-70.9C11.3,-75.1,22.6,-66.9,32.8,-58.9Z" transform="translate(100 100)" />
</svg>
