<?xml version="1.0" encoding="UTF-8"?>
<svg version="1.1" xmlns="http://www.w3.org/2000/svg" width="224" height="310">
<path d="M0 0 C73.92 0 147.84 0 224 0 C224 102.3 224 204.6 224 310 C150.08 310 76.16 310 0 310 C0 207.7 0 105.4 0 0 Z " fill="#C4185F" transform="translate(0,0)"/>
<path d="M0 0 C73.92 0 147.84 0 224 0 C224 102.3 224 204.6 224 310 C150.08 310 76.16 310 0 310 C0 207.7 0 105.4 0 0 Z M55 36 C54.2678125 36.67160156 53.535625 37.34320313 52.78125 38.03515625 C48.61208532 41.94763729 45.66753639 45.76535461 43.08203125 50.8671875 C42 53 42 53 39.9375 56.1875 C34.64931344 65.77098911 33.62533152 75.4474429 33.5625 86.1875 C33.55250977 87.18450928 33.54251953 88.18151855 33.53222656 89.20874023 C33.61329481 96.22751303 34.95576527 102.31268605 37 109 C37.625 112.125 37.625 112.125 37 115 C34.87242433 118.17050492 32.42681037 121.05641581 30 124 C22.88381623 133.45520796 19.01375657 145.21061792 19 157 C18.99210449 157.76844238 18.98420898 158.53688477 18.97607422 159.32861328 C18.87386932 183.1068059 26.09787292 204.0498717 42 222 C42.721875 222.83015625 43.44375 223.6603125 44.1875 224.515625 C46.4227744 227.04583144 48.69756548 229.53083746 51 232 C52.02867188 233.10988281 52.02867188 233.10988281 53.078125 234.2421875 C59.47967875 240.90454529 66.67306014 246.41250616 74 252 C75.0994209 252.84445019 76.19839365 253.68948423 77.296875 254.53515625 C77.82684082 254.94290283 78.35680664 255.35064941 78.90283203 255.77075195 C79.97163719 256.59334963 81.04032121 257.41610472 82.10888672 258.23901367 C82.64271973 258.64998291 83.17655273 259.06095215 83.7265625 259.484375 C84.5314209 260.1040918 84.5314209 260.1040918 85.35253906 260.73632812 C86.46156332 261.5869964 87.57294351 262.43460104 88.68652344 263.27929688 C97.12880101 269.68444757 104.96135438 276.51613285 112.625 283.8359375 C115.6407615 286.70437732 118.77254422 289.37277228 122 292 C126.79654799 288.33699071 127.77969488 283.34749204 129.4375 277.8125 C135.38783918 258.08537552 135.38783918 258.08537552 143 254 C145.83804464 253.53298 148.56986852 253.57538582 151.4375 253.6875 C152.17548828 253.69716797 152.91347656 253.70683594 153.67382812 253.71679688 C157.87830731 253.80275512 161.85372114 254.2641815 166 255 C171.90204165 255.39225315 177.49584731 255.37434037 183 253 C186.18150472 250.04161379 188.89464735 246.90220061 189.140625 242.4609375 C189.17671875 241.44257813 189.2128125 240.42421875 189.25 239.375 C189.62688276 234.02837503 190.81806607 231.07986653 193.9296875 226.8125 C195.6142532 223.9598048 195.18952635 221.22194791 195 218 C195.66 217.01 196.32 216.02 197 215 C197.45915507 212.03157342 197.45915507 212.03157342 197.625 208.8125 C197.69976562 207.72582031 197.77453125 206.63914063 197.8515625 205.51953125 C197.92503906 204.27236328 197.92503906 204.27236328 198 203 C199.051875 202.608125 200.10375 202.21625 201.1875 201.8125 C204.97892445 200.14797219 207.50691853 198.39965655 210 195 C211.20849802 188.51805608 209.23340166 184.86888011 205.72265625 179.44921875 C203.66897216 176.52935498 201.50635878 173.70797743 199.3203125 170.88671875 C197.35455869 168.07766819 196.21575421 165.19935319 195 162 C194.67 161.34 194.34 160.68 194 160 C193.90415166 158.56509392 193.87016607 157.12559561 193.875 155.6875 C193.87242187 154.92824219 193.86984375 154.16898438 193.8671875 153.38671875 C194 151 194 151 194.4921875 148.84375 C195.26612807 144.50968282 195.2252266 140.20668189 195.25 135.8125 C195.270625 134.91724609 195.29125 134.02199219 195.3125 133.09960938 C195.40519655 117.05151864 187.43474698 104.65062184 177 93 C176.09378906 92.18789062 175.18757812 91.37578125 174.25390625 90.5390625 C171.54886392 87.49178778 171.45851748 86.25306318 171.5 82.25 C170.70137922 63.2126074 161.88370936 46.28897115 148.140625 33.296875 C133.52824186 20.65299943 117.524534 14.7848379 98.19921875 15.62109375 C81.08733781 16.88790508 67.17919713 23.9667864 55 36 Z " fill="#FEFDFE" transform="translate(0,0)"/>
<path d="M0 0 C0.83144531 0.61359375 1.66289062 1.2271875 2.51953125 1.859375 C3.29941406 2.43171875 4.07929688 3.0040625 4.8828125 3.59375 C11.81250128 9.19494922 16.2089067 16.17784206 20.51953125 23.859375 C20.9990625 24.70886719 21.47859375 25.55835938 21.97265625 26.43359375 C26.46422787 36.25495282 26.56204442 50.72574418 23.44921875 61.0078125 C16.22604885 78.88811831 2.12520188 93.17728227 -15.29296875 101.171875 C-30.82725388 107.46275721 -49.25510239 108.36994432 -64.87109375 101.86328125 C-78.36017586 95.04799326 -87.23890321 83.336856 -92.43530273 69.43994141 C-94.14299785 63.58965956 -94.2259102 57.98020488 -94.10546875 51.921875 C-94.0892749 50.69202881 -94.07308105 49.46218262 -94.05639648 48.19506836 C-93.57289173 30.96835407 -86.88700768 18.46267161 -75.10546875 5.984375 C-54.034454 -13.85144234 -23.85254215 -16.34405523 0 0 Z " fill="#FCFBFC" transform="translate(136.48046875,35.140625)"/>
<path d="M0 0 C2 1 2 1 3.125 3.6875 C5.19047353 11.52654126 4.33650385 20.11360704 3 28 C2.25081049 37.63243659 2.63402741 44.83506187 8 53 C8.639375 54.010625 9.27875 55.02125 9.9375 56.0625 C11.14598184 57.78367111 12.36697805 59.49639543 13.6171875 61.1875 C14.17664063 61.97125 14.73609375 62.755 15.3125 63.5625 C16.11107422 64.64724609 16.11107422 64.64724609 16.92578125 65.75390625 C18 68 18 68 17.9453125 70.61328125 C16.72320282 73.69885569 15.5270666 74.23046787 12.5625 75.625 C9.1913534 77.23752277 8.14544352 77.78183472 6 81 C5.75812349 83.74518321 5.75812349 83.74518321 5.875 86.6875 C5.89304687 87.68136719 5.91109375 88.67523438 5.9296875 89.69921875 C5.95289063 90.45847656 5.97609375 91.21773438 6 92 C4.02 92.99 2.04 93.98 0 95 C0.515625 95.721875 1.03125 96.44375 1.5625 97.1875 C3 100 3 100 2.8125 102.6875 C2 105 2 105 0 107 C-0.70149324 110.37524759 -1.25836337 113.73866252 -1.76757812 117.14648438 C-2.24417014 120.01920197 -2.6855287 122.49346237 -4.234375 124.98828125 C-6.81156034 126.46503126 -8.86339316 126.32419137 -11.8125 126.25 C-12.82957031 126.23453125 -13.84664063 126.2190625 -14.89453125 126.203125 C-18 126 -18 126 -20.86328125 125.5078125 C-28.44552296 124.28030139 -38.73138207 122.98859681 -45.625 126.9375 C-47.41191576 128.31615099 -47.41191576 128.31615099 -49 130 C-49.60972656 130.62003906 -50.21945313 131.24007812 -50.84765625 131.87890625 C-56.0080587 137.82816003 -58.51990281 144.60542452 -61 152 C-66.51701834 149.84929794 -67.73239878 145.1292705 -70 140 C-70.35191406 139.21109375 -70.70382813 138.4221875 -71.06640625 137.609375 C-75.3149086 127.54625571 -78.62526768 116.96499361 -79 106 C-79.03996094 104.87464844 -79.07992187 103.74929687 -79.12109375 102.58984375 C-79.36393886 89.23336244 -76.98617207 78.32173159 -68 68 C-59.75353376 60.55255151 -49.83224907 55.17358967 -40.24926758 49.66845703 C-32.90106628 45.38214965 -26.46493698 40.51366309 -20 35 C-19.10990234 34.29979736 -18.21980469 33.59959473 -17.30273438 32.87817383 C-13.30420153 29.61685988 -10.8025561 25.28429031 -8 21 C-7.278125 19.9275 -6.55625 18.855 -5.8125 17.75 C-2.7966715 12.35806419 -1.54753587 5.93496469 0 0 Z " fill="#FDFCFD" transform="translate(183,120)"/>
<path d="M0 0 C15.4510188 11.91195863 24.52928388 26.86007528 28.171875 45.96875 C28.2909692 48.27968428 28.3763537 50.59269678 28.421875 52.90625 C28.66926179 57.62961172 29.3010356 59.80707753 32.734375 63.09375 C33.45367187 63.70734375 34.17296875 64.3209375 34.9140625 64.953125 C44.05262732 73.11142854 51.50112781 86.15291431 52.34472656 98.49829102 C52.40347863 101.22055304 52.39593281 103.93365508 52.359375 106.65625 C52.3584082 108.04166992 52.3584082 108.04166992 52.35742188 109.45507812 C52.32933328 113.79008519 52.08269089 117.72019461 51.171875 121.96875 C50.67452871 127.55433139 50.79616471 131.29468959 54.171875 135.96875 C54.46578125 136.73960937 54.7596875 137.51046875 55.0625 138.3046875 C56.25181595 141.16072088 57.72258331 143.35028581 59.546875 145.84375 C68.38620616 158.3184637 68.38620616 158.3184637 67.171875 165.96875 C64.21577954 170.5547474 60.45945924 172.70980137 55.171875 173.96875 C55.09839844 175.18111328 55.09839844 175.18111328 55.0234375 176.41796875 C54.94867188 177.48660156 54.87390625 178.55523437 54.796875 179.65625 C54.69246094 181.23986328 54.69246094 181.23986328 54.5859375 182.85546875 C54.18196733 185.89286713 53.36064147 188.16665761 52.171875 190.96875 C51.98625 192.6703125 51.98625 192.6703125 51.796875 194.40625 C51.171875 197.96875 51.171875 197.96875 49.171875 200.65625 C47.01453799 204.22933942 46.87303534 205.89022417 46.671875 209.96875 C46.34184644 216.16254182 44.80271564 219.50764102 40.234375 223.78125 C34.53202085 227.0644236 26.70860526 226.58383352 20.38671875 225.484375 C16.4627975 224.8550219 12.63998554 224.67046215 8.671875 224.59375 C7.93839844 224.55636719 7.20492187 224.51898438 6.44921875 224.48046875 C2.51205478 224.41707971 -0.04756589 224.71502857 -3.19921875 227.1875 C-10.3269432 234.72827237 -12.74155412 246.23620098 -15.828125 255.96875 C-16.158125 255.96875 -16.488125 255.96875 -16.828125 255.96875 C-16.99614551 254.51057203 -17.16249643 253.0522016 -17.328125 251.59375 C-17.4209375 250.78164063 -17.51375 249.96953125 -17.609375 249.1328125 C-17.828125 246.96875 -17.828125 246.96875 -17.828125 244.96875 C-21.01302507 244.6913999 -21.01302507 244.6913999 -23.828125 246.96875 C-23.828125 245.64875 -23.828125 244.32875 -23.828125 242.96875 C-25.808125 241.97875 -25.808125 241.97875 -27.828125 240.96875 C-27.828125 238.98875 -27.828125 237.00875 -27.828125 234.96875 C-25.46531573 237.11675843 -24.24472266 239.13555467 -22.828125 241.96875 C-22.168125 242.29875 -21.508125 242.62875 -20.828125 242.96875 C-20.745625 242.329375 -20.663125 241.69 -20.578125 241.03125 C-17.99910044 230.50023304 -12.20082686 221.91342264 -3.203125 215.87890625 C0.32833173 214.52556839 3.82186515 214.72044657 7.546875 214.78125 C8.289375 214.78189453 9.031875 214.78253906 9.796875 214.78320312 C14.04058144 214.81694284 17.98147963 215.26288126 22.171875 215.96875 C24.62941641 216.03453002 27.08856278 216.05444162 29.546875 216.03125 C30.79210937 216.02222656 32.03734375 216.01320312 33.3203125 216.00390625 C34.26132813 215.99230469 35.20234375 215.98070312 36.171875 215.96875 C36.35363281 214.70417969 36.53539062 213.43960938 36.72265625 212.13671875 C36.9759155 210.47646368 37.22985739 208.81631263 37.484375 207.15625 C37.60232422 206.32287109 37.72027344 205.48949219 37.84179688 204.63085938 C37.96748047 203.82841797 38.09316406 203.02597656 38.22265625 202.19921875 C38.33262939 201.46082764 38.44260254 200.72243652 38.5559082 199.96166992 C39.28619305 197.59888148 40.42482859 196.66565054 42.171875 194.96875 C41.91053285 191.571302 40.81579344 188.92780318 39.171875 185.96875 C41.151875 184.97875 43.131875 183.98875 45.171875 182.96875 C45.12546875 182.23269531 45.0790625 181.49664062 45.03125 180.73828125 C44.73828847 172.81785696 44.73828847 172.81785696 46.671875 169.03125 C49.91031578 166.35953636 53.33551331 164.63551879 57.171875 162.96875 C56.62002014 159.24210657 55.68741954 156.88522356 53.484375 153.84375 C49.95616802 148.76823297 47.03350031 143.44203937 44.171875 137.96875 C43.59759766 137.04642578 43.59759766 137.04642578 43.01171875 136.10546875 C41.75907962 132.91852174 41.94697508 130.00054288 41.984375 126.59375 C41.99404297 124.66402344 41.99404297 124.66402344 42.00390625 122.6953125 C42.15462197 119.35152642 42.61017369 116.26058096 43.171875 112.96875 C43.6641015 104.80914921 43.31522092 98.48544677 40.171875 90.96875 C40.41404326 87.33622606 41.11784036 86.04980196 43.171875 82.96875 C42.181875 82.63875 41.191875 82.30875 40.171875 81.96875 C40.171875 80.64875 40.171875 79.32875 40.171875 77.96875 C39.511875 77.96875 38.851875 77.96875 38.171875 77.96875 C38.171875 76.64875 38.171875 75.32875 38.171875 73.96875 C37.511875 73.96875 36.851875 73.96875 36.171875 73.96875 C36.006875 72.97875 35.841875 71.98875 35.671875 70.96875 C34.67305478 67.29901052 32.88804541 65.51379338 30.109375 62.96875 C27.32674603 60.39242806 25.67235823 58.78782206 25.171875 54.96875 C25.171875 53.97875 25.171875 52.98875 25.171875 51.96875 C22.71793026 54.42269474 22.90502 55.27954742 22.734375 58.65625 C22.4724943 62.08046373 22.03272652 64.74430406 20.546875 67.84375 C19.09065685 71.15333671 19.1321975 71.73419778 20.171875 74.96875 C18.171875 77.96875 18.171875 77.96875 15.046875 78.65625 C14.098125 78.759375 13.149375 78.8625 12.171875 78.96875 C12.089375 79.71125 12.006875 80.45375 11.921875 81.21875 C10.84043832 85.18401782 8.53670327 86.8215481 5.45703125 89.41015625 C2.30424558 92.06969426 -0.54640879 94.47906639 -2.828125 97.96875 C-1.838125 99.45375 -1.838125 99.45375 -0.828125 100.96875 C-1.158125 101.62875 -1.488125 102.28875 -1.828125 102.96875 C-3.313125 102.47375 -3.313125 102.47375 -4.828125 101.96875 C-6.50353164 102.61313717 -8.16995716 103.28121699 -9.828125 103.96875 C-11.148125 103.96875 -12.468125 103.96875 -13.828125 103.96875 C-14.323125 105.45375 -14.323125 105.45375 -14.828125 106.96875 C-15.818125 106.96875 -16.808125 106.96875 -17.828125 106.96875 C-16.65013648 103.43478445 -15.97463795 103.19740981 -12.890625 101.34375 C1.43290998 92.12112414 11.77483132 79.15988104 17.171875 62.96875 C18.87330584 43.96872102 15.17528623 29.86187134 3.171875 14.96875 C-7.18485335 3.82619984 -21.76349459 -3.03370866 -36.89990234 -3.62548828 C-54.66374191 -3.81617185 -68.9238996 1.4329589 -82.078125 13.71875 C-96.57056561 29.20547448 -100.02932931 44.6438764 -99.375 65.265625 C-98.49631884 79.75177223 -91.91796137 90.34751883 -81.515625 100.21875 C-68.82934849 111.01283611 -54.69960805 111.31176051 -38.828125 111.96875 C-38.828125 112.29875 -38.828125 112.62875 -38.828125 112.96875 C-41.80735503 112.99602678 -44.78632879 113.01572128 -47.765625 113.03125 C-49.01182617 113.04381836 -49.01182617 113.04381836 -50.28320312 113.05664062 C-59.34829896 113.09191337 -66.4440806 112.90901916 -74.203125 107.90625 C-78.65948881 104.91490701 -78.65948881 104.91490701 -83.828125 103.96875 C-83.96734375 103.08896484 -83.96734375 103.08896484 -84.109375 102.19140625 C-84.99287288 99.45928508 -86.22358941 98.3339701 -88.328125 96.40625 C-90.79696452 94.13471528 -91.74252514 93.22554957 -92.828125 89.96875 C-93.818125 89.30875 -94.808125 88.64875 -95.828125 87.96875 C-96.158125 87.288125 -96.488125 86.6075 -96.828125 85.90625 C-97.72510816 83.61532009 -97.72510816 83.61532009 -100.828125 82.96875 C-100.828125 79.99875 -100.828125 77.02875 -100.828125 73.96875 C-104.0964064 76.58085269 -104.0964064 76.58085269 -104.015625 79.65625 C-103.95375 80.419375 -103.891875 81.1825 -103.828125 81.96875 C-109.03968531 76.75718969 -109.22708622 67.28916422 -109.34692383 60.27954102 C-109.34072021 59.29010498 -109.3345166 58.30066895 -109.328125 57.28125 C-109.32385498 56.23831787 -109.31958496 55.19538574 -109.31518555 54.12084961 C-109.04370152 41.67383472 -105.80500469 30.39178542 -98.828125 19.96875 C-98.42335938 19.34355469 -98.01859375 18.71835937 -97.6015625 18.07421875 C-85.98981734 1.40355537 -71.08973381 -7.85004197 -51.44140625 -12.609375 C-32.59939171 -15.65113519 -15.31628636 -11.00064766 0 0 Z M16.171875 74.96875 C17.171875 76.96875 17.171875 76.96875 17.171875 76.96875 Z " fill="#A42354" transform="translate(142.828125,29.03125)"/>
<path d="M0 0 C1.02083176 0.00022659 2.04166351 0.00045319 3.09342957 0.00068665 C4.7435479 0.02391243 4.7435479 0.02391243 6.42700195 0.04760742 C8.11863213 0.05397469 8.11863213 0.05397469 9.84443665 0.06047058 C13.45162687 0.07728306 17.05826142 0.11494089 20.6652832 0.15307617 C23.10863452 0.16811965 25.55199458 0.18180863 27.99536133 0.1940918 C33.98969202 0.22719501 39.98369792 0.27742024 45.9777832 0.34057617 C44.85326593 3.31251468 43.75484529 5.67498304 41.9777832 8.34057617 C38.9387207 8.63354492 38.9387207 8.63354492 35.3527832 8.52807617 C34.16426758 8.50100586 32.97575195 8.47393555 31.7512207 8.44604492 C30.83598633 8.41124023 29.92075195 8.37643555 28.9777832 8.34057617 C29.4727832 9.45432617 29.4727832 9.45432617 29.9777832 10.59057617 C30.9777832 13.34057617 30.9777832 13.34057617 30.9777832 17.34057617 C35.9277832 17.34057617 40.8777832 17.34057617 45.9777832 17.34057617 C44.6577832 19.98057617 43.3377832 22.62057617 41.9777832 25.34057617 C38.3477832 25.34057617 34.7177832 25.34057617 30.9777832 25.34057617 C30.9365332 26.18620117 30.8952832 27.03182617 30.8527832 27.90307617 C29.51163314 33.17187997 26.56014908 36.50471863 22.15356445 39.63745117 C16.95249823 42.54920427 11.84974687 43.03828185 5.9777832 43.34057617 C10.686831 48.7969767 15.5215161 54.10839317 20.4777832 59.34057617 C34.92247217 74.58940246 34.92247217 74.58940246 37.9777832 80.34057617 C33.3764299 81.27568991 29.55875248 81.47119838 24.9777832 80.34057617 C20.61091846 77.08410007 17.4614496 72.51697305 14.29663086 68.13891602 C11.64461164 64.52270469 8.77512953 61.13792249 5.6027832 57.96557617 C2.74454359 55.10733656 0.14111771 52.09422131 -2.47143555 49.01245117 C-3.93572147 47.23731254 -3.93572147 47.23731254 -6.0222168 46.34057617 C-6.0222168 43.04057617 -6.0222168 39.74057617 -6.0222168 36.34057617 C-4.64549805 36.28450195 -4.64549805 36.28450195 -3.2409668 36.22729492 C7.91897893 35.88983491 7.91897893 35.88983491 17.62231445 30.92651367 C19.21025544 29.26979275 19.21025544 29.26979275 19.9777832 26.34057617 C10.4077832 26.01057617 0.8377832 25.68057617 -9.0222168 25.34057617 C-7.0222168 20.34057617 -7.0222168 20.34057617 -5.0222168 17.34057617 C-2.40844727 17 -2.40844727 17 0.8605957 17.04760742 C2.02719727 17.05727539 3.19379883 17.06694336 4.39575195 17.0769043 C5.61907227 17.10204102 6.84239258 17.12717773 8.1027832 17.15307617 C9.33383789 17.16661133 10.56489258 17.18014648 11.83325195 17.1940918 C14.88186163 17.22954075 17.92960821 17.27895538 20.9777832 17.34057617 C18.90911418 13.31211543 17.1177884 11.24037644 12.9777832 9.34057617 C10.28335874 8.84536851 10.28335874 8.84536851 7.45825195 8.82885742 C6.43666992 8.7934082 5.41508789 8.75795898 4.36254883 8.72143555 C2.77990234 8.68759766 2.77990234 8.68759766 1.1652832 8.65307617 C0.09084961 8.61891602 -0.98358398 8.58475586 -2.09057617 8.54956055 C-4.73435213 8.46730974 -7.37780601 8.39808408 -10.0222168 8.34057617 C-7.98536561 2.54338434 -6.38694601 -0.04731071 0 0 Z " fill="#A32956" transform="translate(82.022216796875,44.659423828125)"/>
<path d="M0 0 C1.02083176 0.00022659 2.04166351 0.00045319 3.09342957 0.00068665 C4.7435479 0.02391243 4.7435479 0.02391243 6.42700195 0.04760742 C8.11863213 0.05397469 8.11863213 0.05397469 9.84443665 0.06047058 C13.45162687 0.07728306 17.05826142 0.11494089 20.6652832 0.15307617 C23.10863452 0.16811965 25.55199458 0.18180863 27.99536133 0.1940918 C33.98969202 0.22719501 39.98369792 0.27742024 45.9777832 0.34057617 C45.9777832 0.67057617 45.9777832 1.00057617 45.9777832 1.34057617 C40.0377832 1.83557617 40.0377832 1.83557617 33.9777832 2.34057617 C33.6477832 3.33057617 33.3177832 4.32057617 32.9777832 5.34057617 C34.2977832 5.01057617 35.6177832 4.68057617 36.9777832 4.34057617 C37.4727832 5.33057617 37.4727832 5.33057617 37.9777832 6.34057617 C36.56155105 6.39504664 35.1447013 6.43358125 33.7277832 6.46557617 C32.93887695 6.4887793 32.1499707 6.51198242 31.3371582 6.53588867 C28.77046379 6.32341397 27.18617651 5.62711723 24.9777832 4.34057617 C24.3177832 5.66057617 23.6577832 6.98057617 22.9777832 8.34057617 C21.9877832 8.01057617 20.9977832 7.68057617 19.9777832 7.34057617 C20.6377832 6.02057617 21.2977832 4.70057617 21.9777832 3.34057617 C21.0702832 3.64995117 20.1627832 3.95932617 19.2277832 4.27807617 C18.1552832 4.62870117 17.0827832 4.97932617 15.9777832 5.34057617 C15.2765332 5.58807617 14.5752832 5.83557617 13.8527832 6.09057617 C11.9777832 6.34057617 11.9777832 6.34057617 10.0402832 5.34057617 C7.32999832 4.02649865 5.84254736 4.66096161 2.9777832 5.34057617 C3.70223633 5.43854492 4.42668945 5.53651367 5.1730957 5.63745117 C11.06661686 6.54898244 15.4167312 7.39588255 19.9777832 11.34057617 C19.9777832 12.00057617 19.9777832 12.66057617 19.9777832 13.34057617 C22.862161 12.04757923 24.84997742 10.68116254 26.9777832 8.34057617 C28.9777832 11.34057617 28.9777832 11.34057617 28.9777832 14.34057617 C27.3277832 14.67057617 25.6777832 15.00057617 23.9777832 15.34057617 C23.9777832 16.33057617 23.9777832 17.32057617 23.9777832 18.34057617 C24.9677832 18.34057617 25.9577832 18.34057617 26.9777832 18.34057617 C26.9777832 19.99057617 26.9777832 21.64057617 26.9777832 23.34057617 C25.9877832 23.67057617 24.9977832 24.00057617 23.9777832 24.34057617 C23.4827832 21.37057617 23.4827832 21.37057617 22.9777832 18.34057617 C14.0677832 18.34057617 5.1577832 18.34057617 -4.0222168 18.34057617 C-4.0222168 18.01057617 -4.0222168 17.68057617 -4.0222168 17.34057617 C4.2277832 17.34057617 12.4777832 17.34057617 20.9777832 17.34057617 C17.87729001 12.07363255 17.87729001 12.07363255 12.9777832 9.34057617 C10.28335874 8.84536851 10.28335874 8.84536851 7.45825195 8.82885742 C6.43666992 8.7934082 5.41508789 8.75795898 4.36254883 8.72143555 C2.77990234 8.68759766 2.77990234 8.68759766 1.1652832 8.65307617 C0.09084961 8.61891602 -0.98358398 8.58475586 -2.09057617 8.54956055 C-4.73435213 8.46730974 -7.37780601 8.39808408 -10.0222168 8.34057617 C-7.98536561 2.54338434 -6.38694601 -0.04731071 0 0 Z " fill="#94204E" transform="translate(82.022216796875,44.659423828125)"/>
<path d="M0 0 C0.495 1.98 0.495 1.98 1 4 C5.62 4 10.24 4 15 4 C14.34 4.99 13.68 5.98 13 7 C13 6.34 13 5.68 13 5 C10.36 5.33 7.72 5.66 5 6 C5.495 6.99 5.495 6.99 6 8 C4.02 7.67 2.04 7.34 0 7 C-0.33 9.64 -0.66 12.28 -1 15 C-3.31 15.33 -5.62 15.66 -8 16 C-7.67 14.02 -7.34 12.04 -7 10 C-16.9 10 -26.8 10 -37 10 C-35.71697427 4.8678971 -35.71697427 4.8678971 -33 3 C-30.1809082 2.7512207 -30.1809082 2.7512207 -26.80078125 2.92578125 C-25.59228516 2.98056641 -24.38378906 3.03535156 -23.13867188 3.09179688 C-21.2447168 3.20104492 -21.2447168 3.20104492 -19.3125 3.3125 C-18.03826172 3.37373047 -16.76402344 3.43496094 -15.45117188 3.49804688 C-12.29981484 3.65148373 -9.14989608 3.8193642 -6 4 C-5.67 5.98 -5.34 7.96 -5 10 C-4.34 9.67 -3.68 9.34 -3 9 C-2.34444881 6.47266765 -2.34444881 6.47266765 -2 4 C-2.99 4 -3.98 4 -5 4 C-5 3.01 -5 2.02 -5 1 C-3 0 -3 0 0 0 Z " fill="#B02059" transform="translate(111,59)"/>
<path d="M0 0 C0.99 0 1.98 0 3 0 C3 1.65 3 3.3 3 5 C2.34 5 1.68 5 1 5 C1.020625 5.721875 1.04125 6.44375 1.0625 7.1875 C1 10 1 10 0.5 12.1875 C0.0195791 14.88986755 0.03407202 17.14302765 0.125 19.875 C0.18149321 23.3262215 -0.0761452 25.75432748 -1.5625 28.875 C-3.09298087 32.20213233 -3.0502613 32.7325204 -2 36 C-4 39 -4 39 -7.125 39.6875 C-8.548125 39.8421875 -8.548125 39.8421875 -10 40 C-10.0825 40.7425 -10.165 41.485 -10.25 42.25 C-11.33143668 46.21526782 -13.63517173 47.8527981 -16.71484375 50.44140625 C-19.86762942 53.10094426 -22.71828379 55.51031639 -25 59 C-24.34 59.99 -23.68 60.98 -23 62 C-23.33 62.66 -23.66 63.32 -24 64 C-24.99 63.67 -25.98 63.34 -27 63 C-28.67540664 63.64438717 -30.34183216 64.31246699 -32 65 C-33.32 65 -34.64 65 -36 65 C-36.33 65.99 -36.66 66.98 -37 68 C-37.99 68 -38.98 68 -40 68 C-38.82201148 64.46603445 -38.14651295 64.22865981 -35.0625 62.375 C-20.73896502 53.15237414 -10.39704368 40.19113104 -5 24 C-4.87762368 22.63974674 -4.79971918 21.27513466 -4.75390625 19.91015625 C-4.72103516 19.12576172 -4.68816406 18.34136719 -4.65429688 17.53320312 C-4.59324912 15.89010921 -4.53593865 14.24687206 -4.48242188 12.60351562 C-4.44826172 11.81783203 -4.41410156 11.03214844 -4.37890625 10.22265625 C-4.34132202 9.15156616 -4.34132202 9.15156616 -4.30297852 8.05883789 C-3.95895574 5.72109084 -3.15228077 4.04897938 -2 2 C-1.34 2 -0.68 2 0 2 C0 1.34 0 0.68 0 0 Z M-6 36 C-5 38 -5 38 -5 38 Z " fill="#B5235A" transform="translate(165,68)"/>
<path d="M0 0 C0 0.66 0 1.32 0 2 C1.08796875 1.97679687 2.1759375 1.95359375 3.296875 1.9296875 C12.08725808 1.80137537 20.35943873 2.13537021 29 4 C29 4.66 29 5.32 29 6 C22.71428571 8.42857143 22.71428571 8.42857143 19 7 C19 7.66 19 8.32 19 9 C15.95809137 9.05421223 12.91716001 9.09377548 9.875 9.125 C9.0190625 9.14175781 8.163125 9.15851563 7.28125 9.17578125 C2.4745279 9.21275604 -1.53590347 9.02913479 -6 7 C-7.0625 5.0625 -7.0625 5.0625 -7 3 C-4.8243318 -0.20624788 -4.07796486 0 0 0 Z " fill="#BA215E" transform="translate(146,244)"/>
<path d="M0 0 C5.61 0 11.22 0 17 0 C17 0.33 17 0.66 17 1 C19.64 1.66 22.28 2.32 25 3 C25 3.99 25 4.98 25 6 C23.9275 6.144375 22.855 6.28875 21.75 6.4375 C18.30285435 6.86377105 18.30285435 6.86377105 16.2421875 7.52734375 C12.96546504 8.21808141 9.70724246 8.14415082 6.375 8.125 C5.694375 8.12886719 5.01375 8.13273437 4.3125 8.13671875 C-0.74655878 8.12672061 -0.74655878 8.12672061 -3 7 C-3 7.66 -3 8.32 -3 9 C-5.31 8.67 -7.62 8.34 -10 8 C-9.34 7.67 -8.68 7.34 -8 7 C-7.34786708 4.97536745 -7.34786708 4.97536745 -7 3 C-4.69 2.34 -2.38 1.68 0 1 C0 0.67 0 0.34 0 0 Z " fill="#B02A62" transform="translate(94,16)"/>
<path d="M0 0 C0.99 0.33 1.98 0.66 3 1 C3.94921875 2.99609375 3.94921875 2.99609375 4.6875 5.4375 C5.06455078 6.64212891 5.06455078 6.64212891 5.44921875 7.87109375 C6 10 6 10 6 12 C6.66 12 7.32 12 8 12 C8 18.93 8 25.86 8 33 C6.35 33 4.7 33 3 33 C0.85213772 30.85213772 1.57867818 26.17538572 1.4375 23.1875 C1.39431641 22.36701172 1.35113281 21.54652344 1.30664062 20.70117188 C1.08992796 16.45979541 1 12.2484444 1 8 C-0.65 7.67 -2.3 7.34 -4 7 C-3.6875 4.625 -3.6875 4.625 -3 2 C-2.01 1.34 -1.02 0.68 0 0 Z " fill="#B8205E" transform="translate(187,113)"/>
<path d="M0 0 C1.32 0.99 2.64 1.98 4 3 C3.835 3.66 3.67 4.32 3.5 5 C3.07202855 7.56782872 3.04867735 9.50146149 3.1875 12.0625 C3 16 3 16 0.98828125 18.24609375 C0.33214844 18.82488281 -0.32398437 19.40367187 -1 20 C-2.58775549 18.60919892 -4.17000939 17.21211596 -5.75 15.8125 C-6.63171875 15.03519531 -7.5134375 14.25789063 -8.421875 13.45703125 C-10.87886268 11.11544754 -12.94862766 8.69841735 -15 6 C-14.38125 6.33 -13.7625 6.66 -13.125 7 C-11.08981656 8.14193235 -11.08981656 8.14193235 -9 8 C-8.67 7.01 -8.34 6.02 -8 5 C-6.02583732 3.94991347 -4.02417134 2.95012124 -2 2 C-1.34 1.34 -0.68 0.68 0 0 Z " fill="#C21A5D" transform="translate(123,272)"/>
<path d="M0 0 C0 7.66537388 -1.6164217 13.2328434 -5 20 C-5.039992 21.99960012 -5.04346799 24.00047242 -5 26 C-7.4375 25 -7.4375 25 -10 23 C-11.95613976 16.67131254 -10.3800202 11.8271831 -8.3984375 5.63671875 C-6.55115448 2.15371306 -4.08311033 0 0 0 Z " fill="#B1225E" transform="translate(46,55)"/>
<path d="M0 0 C0.33 0 0.66 0 1 0 C1.33 1.65 1.66 3.3 2 5 C2.33 4.01 2.66 3.02 3 2 C3.66 2 4.32 2 5 2 C5.02578125 2.81984375 5.0515625 3.6396875 5.078125 4.484375 C5.13484375 5.56203125 5.1915625 6.6396875 5.25 7.75 C5.29640625 8.81734375 5.3428125 9.8846875 5.390625 10.984375 C5.73516922 14.12114619 5.73516922 14.12114619 8.09375 16.09375 C8.7228125 16.7228125 9.351875 17.351875 10 18 C9.953125 20.359375 9.953125 20.359375 9.25 22.75 C9.02828125 23.54921875 8.8065625 24.3484375 8.578125 25.171875 C8.38734375 25.77515625 8.1965625 26.3784375 8 27 C4.59155912 25.62090338 3.33262465 24.39436506 1.8125 21.0625 C1.48894531 20.37285156 1.16539062 19.68320313 0.83203125 18.97265625 C-0.71594636 15.30256848 -1.13563778 12.45725488 -1.125 8.5 C-1.12757813 7.5409375 -1.13015625 6.581875 -1.1328125 5.59375 C-1 3 -1 3 0 0 Z " fill="#BC1C5E" transform="translate(187,147)"/>
<path d="M0 0 C1 3 1 3 -0.22265625 5.453125 C-2.11405915 8.32837867 -4.02526345 11.18122283 -6 14 C-6.433125 14.62390625 -6.86625 15.2478125 -7.3125 15.890625 C-10.67800275 20.2237098 -14.93924524 23.57330856 -19.1875 27 C-19.80633057 27.50595703 -20.42516113 28.01191406 -21.06274414 28.53320312 C-22.6458199 29.77327554 -24.3184824 30.89709156 -26 32 C-26.99 31.67 -27.98 31.34 -29 31 C-28.34 31 -27.68 31 -27 31 C-26.67 29.68 -26.34 28.36 -26 27 C-24.68 26.67 -23.36 26.34 -22 26 C-21.938125 24.948125 -21.87625 23.89625 -21.8125 22.8125 C-20.83964191 18.24755052 -19.77323546 16.7068863 -16 14 C-12.1875 13.6875 -12.1875 13.6875 -9 14 C-8.896875 13.360625 -8.79375 12.72125 -8.6875 12.0625 C-8.3471875 11.0415625 -8.3471875 11.0415625 -8 10 C-7.01 9.67 -6.02 9.34 -5 9 C-5 7.68 -5 6.36 -5 5 C-4.01 4.67 -3.02 4.34 -2 4 C-0.79117904 1.99983534 -0.79117904 1.99983534 0 0 Z " fill="#B01D56" transform="translate(178,133)"/>
<path d="M0 0 C2.39283902 2.39283902 3.00367728 4.3989055 4.1875 7.5625 C9.18103991 19.74790206 18.45056369 29.55880607 30.49609375 35.0390625 C40.19780321 38.76233945 50.7391405 38.57525854 61 39 C61 39.33 61 39.66 61 40 C58.02076997 40.02727678 55.04179621 40.04697128 52.0625 40.0625 C50.81629883 40.07506836 50.81629883 40.07506836 49.54492188 40.08789062 C40.47982604 40.12316337 33.3840444 39.94026916 25.625 34.9375 C21.16863619 31.94615701 21.16863619 31.94615701 16 31 C15.9071875 30.41347656 15.814375 29.82695312 15.71875 29.22265625 C14.83525212 26.49053508 13.60453559 25.3652201 11.5 23.4375 C9.03116048 21.16596528 8.08559986 20.25679957 7 17 C6.01 16.34 5.02 15.68 4 15 C3.67 14.319375 3.34 13.63875 3 12.9375 C2.10301684 10.64657009 2.10301684 10.64657009 -1 10 C-0.67 6.7 -0.34 3.4 0 0 Z " fill="#892448" transform="translate(43,102)"/>
<path d="M0 0 C4.875 4.625 4.875 4.625 6 8 C6.99 8.66 7.98 9.32 9 10 C9.3125 13.5 9.3125 13.5 9 17 C8.34 17.66 7.68 18.32 7 19 C4.515625 18.953125 4.515625 18.953125 2 18 C0.671875 15.671875 0.671875 15.671875 -0.25 12.75 C-0.56453125 11.79609375 -0.8790625 10.8421875 -1.203125 9.859375 C-1.93039188 7.24977031 -2.51388124 4.66393081 -3 2 C-2.01 1.34 -1.02 0.68 0 0 Z " fill="#A91E54" transform="translate(155,44)"/>
<path d="M0 0 C0.33 1.32 0.66 2.64 1 4 C5.62 4 10.24 4 15 4 C14.01 5.485 14.01 5.485 13 7 C13 6.34 13 5.68 13 5 C10.36 5.33 7.72 5.66 5 6 C5.33 6.66 5.66 7.32 6 8 C3.03 7.505 3.03 7.505 0 7 C-0.33 9.64 -0.66 12.28 -1 15 C-3.31 15.33 -5.62 15.66 -8 16 C-7.95875 15.0925 -7.9175 14.185 -7.875 13.25 C-7.99531556 10.1217954 -8.3914708 8.61385994 -10 6 C-8.68 5.34 -7.36 4.68 -6 4 C-5.67 5.98 -5.34 7.96 -5 10 C-4.34 9.67 -3.68 9.34 -3 9 C-2.34444881 6.47266765 -2.34444881 6.47266765 -2 4 C-2.99 4 -3.98 4 -5 4 C-5 3.01 -5 2.02 -5 1 C-3 0 -3 0 0 0 Z " fill="#B91E5F" transform="translate(111,59)"/>
<path d="M0 0 C4.29 0.66 8.58 1.32 13 2 C13 2.66 13 3.32 13 4 C9.37 4 5.74 4 2 4 C1.814375 5.3921875 1.814375 5.3921875 1.625 6.8125 C1 10 1 10 -1 13 C-1.66 13 -2.32 13 -3 13 C-3.495 12.01 -3.495 12.01 -4 11 C-7.02934491 10.34227572 -7.02934491 10.34227572 -10 10 C-9.67 8.35 -9.34 6.7 -9 5 C-18.57 4.67 -28.14 4.34 -38 4 C-37.67 3.34 -37.34 2.68 -37 2 C-27.1 2.33 -17.2 2.66 -7 3 C-7 4.65 -7 6.3 -7 8 C-5.515 8.495 -5.515 8.495 -4 9 C-3.67 8.34 -3.34 7.68 -3 7 C-2.34 7.33 -1.68 7.66 -1 8 C-0.67 5.36 -0.34 2.72 0 0 Z " fill="#AC466C" transform="translate(111,66)"/>
<path d="M0 0 C2 1 2 1 3.125 3.6875 C5.16739125 11.43893765 4.48233118 20.2088673 3 28 C2.67 28 2.34 28 2 28 C1.67 24.04 1.34 20.08 1 16 C0.01 16.99 -0.98 17.98 -2 19 C-2.33 19 -2.66 19 -3 19 C-4.34136367 19.65035814 -5.67532254 20.3162955 -7 21 C-6.72414062 20.34644531 -6.44828125 19.69289062 -6.1640625 19.01953125 C-4.72643933 15.29039464 -3.54896624 11.50630296 -2.375 7.6875 C-2.14554688 6.94693359 -1.91609375 6.20636719 -1.6796875 5.44335938 C-1.11796701 3.6294703 -0.55873176 1.81481192 0 0 Z " fill="#F7E0EA" transform="translate(183,120)"/>
<path d="M0 0 C2.97 0.495 2.97 0.495 6 1 C5.731875 1.515625 5.46375 2.03125 5.1875 2.5625 C3.67650593 5.66401415 2.34427274 8.82262806 1 12 C0.34 12 -0.32 12 -1 12 C-1.33 12.99 -1.66 13.98 -2 15 C-3.65 15.33 -5.3 15.66 -7 16 C-8.125 12.25 -8.125 12.25 -7 10 C-6.34 10 -5.68 10 -5 10 C-4.9175 9.278125 -4.835 8.55625 -4.75 7.8125 C-3.85249799 4.44686746 -2.2885722 2.58387184 0 0 Z M-10 18 C-9.01 18.495 -9.01 18.495 -8 19 C-8.99 19.495 -8.99 19.495 -10 20 C-10 19.34 -10 18.68 -10 18 Z " fill="#C01C5B" transform="translate(134,251)"/>
<path d="M0 0 C5.70711297 0.90794979 5.70711297 0.90794979 8.1875 1.6875 C10.3371308 2.27213937 10.3371308 2.27213937 13 0 C15.6875 -0.125 15.6875 -0.125 18 0 C17.67 1.32 17.34 2.64 17 4 C17.66 4.33 18.32 4.66 19 5 C19.66 3.35 20.32 1.7 21 0 C21.99 0.33 22.98 0.66 24 1 C24 4.97054597 22.6860619 6.16471244 20 9 C17.75 9.8125 17.75 9.8125 16 10 C15.34 9.01 14.68 8.02 14 7 C8.72451844 4.20076489 3.9232611 3.3895115 -2 3 C-1.34 2.01 -0.68 1.02 0 0 Z " fill="#BA1D5E" transform="translate(86,48)"/>
<path d="M0 0 C0.33 0.66 0.66 1.32 1 2 C0.01 3.485 0.01 3.485 -1 5 C-1.12375 5.804375 -1.2475 6.60875 -1.375 7.4375 C-2.32062704 11.31457084 -4.73562792 12.93723623 -7.71484375 15.44140625 C-10.86762942 18.10094426 -13.71828379 20.51031639 -16 24 C-15.34 24.99 -14.68 25.98 -14 27 C-14.33 27.66 -14.66 28.32 -15 29 C-15.99 28.67 -16.98 28.34 -18 28 C-19.67540664 28.64438717 -21.34183216 29.31246699 -23 30 C-24.32 30 -25.64 30 -27 30 C-27.33 30.99 -27.66 31.98 -28 33 C-28.99 33 -29.98 33 -31 33 C-29.82201148 29.46603445 -29.14651295 29.22865981 -26.0625 27.375 C-15.01850129 20.26399924 -7.02684976 10.96188562 0 0 Z " fill="#9A2E51" transform="translate(156,103)"/>
<path d="M0 0 C0.33 0 0.66 0 1 0 C1.125 2.375 1.125 2.375 1 5 C0.34 5.66 -0.32 6.32 -1 7 C-1.12375 8.155 -1.2475 9.31 -1.375 10.5 C-1.58125 11.655 -1.7875 12.81 -2 14 C-4.0625 15.4375 -4.0625 15.4375 -6 16 C-5.67 17.32 -5.34 18.64 -5 20 C-5.99 20 -6.98 20 -8 20 C-8 19.01 -8 18.02 -8 17 C-8.66 17 -9.32 17 -10 17 C-9.67 18.32 -9.34 19.64 -9 21 C-9.66 21 -10.32 21 -11 21 C-12.32 23.64 -13.64 26.28 -15 29 C-16.35038876 24.94883371 -15.20709797 23.42805946 -13.44140625 19.6875 C-5.61360254 5.09257059 -5.61360254 5.09257059 0 3 C0 2.01 0 1.02 0 0 Z " fill="#AA2457" transform="translate(39,112)"/>
<path d="M0 0 C0 0.99 0 1.98 0 3 C-0.95132813 3.33644531 -0.95132813 3.33644531 -1.921875 3.6796875 C-4.22016157 4.83785757 -4.22016157 4.83785757 -4.828125 7.3828125 C-4.96734375 8.28773437 -5.1065625 9.19265625 -5.25 10.125 C-5.39953125 11.03507812 -5.5490625 11.94515625 -5.703125 12.8828125 C-5.80109375 13.58148438 -5.8990625 14.28015625 -6 15 C-6.66 14.67 -7.32 14.34 -8 14 C-8 13.01 -8 12.02 -8 11 C-9.32 10.34 -10.64 9.68 -12 9 C-12 8.01 -12 7.02 -12 6 C-12.66 6 -13.32 6 -14 6 C-14 4.35 -14 2.7 -14 1 C-9.23692563 0.04738513 -4.8333472 -0.08333357 0 0 Z " fill="#B91D5E" transform="translate(92,83)"/>
<path d="M0 0 C-0.99 0.66 -1.98 1.32 -3 2 C-3 2.99 -3 3.98 -3 5 C-2.34 4.67 -1.68 4.34 -1 4 C-1 4.66 -1 5.32 -1 6 C-0.01 6.33 0.98 6.66 2 7 C1.0925 7.433125 0.185 7.86625 -0.75 8.3125 C-3.43218449 9.70517271 -5.66139605 11.11112757 -8 13 C-6.79618552 10.50638429 -5.54571278 8.31856917 -4 6 C-6.83151973 5.58190799 -6.83151973 5.58190799 -10 6 C-12.80519876 8.72938257 -14.4229284 11.10476671 -15 15 C-15.66 15 -16.32 15 -17 15 C-16.979375 15.94875 -16.95875 16.8975 -16.9375 17.875 C-17 21 -17 21 -18 23 C-18.66 23 -19.32 23 -20 23 C-20.33 23.66 -20.66 24.32 -21 25 C-20.16309728 14.95716738 -15.27951385 7.85297984 -8 1 C-4.88393779 -0.89271927 -3.47039469 -1.23942668 0 0 Z " fill="#99214A" transform="translate(144,246)"/>
<path d="M0 0 C5.51006273 1.07513419 8.0872892 3.81196649 11.6796875 7.83203125 C13.25558391 10.41967181 13.25982527 12.02240241 13 15 C12.01 15 11.02 15 10 15 C10 14.01 10 13.02 10 12 C8.68 12.33 7.36 12.66 6 13 C5.67 12.01 5.34 11.02 5 10 C4.34 10 3.68 10 3 10 C0.4606772 6.58168085 -0.3636198 4.24223102 0 0 Z " fill="#BB1D5F" transform="translate(88,95)"/>
<path d="M0 0 C3.1875 1.125 3.1875 1.125 4.38671875 3.1953125 C4.65097656 3.83210938 4.91523437 4.46890625 5.1875 5.125 C3.63174022 5.97084998 2.0675388 6.80118399 0.5 7.625 C-0.80517578 8.32109375 -0.80517578 8.32109375 -2.13671875 9.03125 C-4.93038829 10.17318792 -6.82879113 10.34004208 -9.8125 10.125 C-10.1425 8.805 -10.4725 7.485 -10.8125 6.125 C-5.13201734 0.16826286 -5.13201734 0.16826286 0 0 Z " fill="#B1255F" transform="translate(103.8125,74.875)"/>
<path d="M0 0 C4.31481254 4.31481254 4.0572706 10.79390966 4.25 16.5625 C4.63329258 23.02586501 6.27339792 25.67566193 11 30 C7.19364545 28.2063873 4.70466725 26.28946017 2 23 C1.1875 19.1875 1.1875 19.1875 1 16 C-0.98 16.99 -0.98 16.99 -3 18 C-2.33333333 14.66666667 -1.66666667 11.33333333 -1 8 C-0.34 8 0.32 8 1 8 C0.67 5.36 0.34 2.72 0 0 Z " fill="#9B2D57" transform="translate(167,65)"/>
<path d="M0 0 C-0.50740462 4.39750672 -3.08293314 6.86948922 -6 10 C-6.66 10 -7.32 10 -8 10 C-8 11.32 -8 12.64 -8 14 C-9.32 13.34 -10.64 12.68 -12 12 C-12.38937141 8.5930002 -12.15388085 7.23631702 -10.25 4.3125 C-6.74575287 0.71091267 -5.06455641 0 0 0 Z " fill="#B4205D" transform="translate(58,41)"/>
<path d="M0 0 C4.76560621 1.40164889 7.95882443 4.15411474 11 8 C11 8.66 11 9.32 11 10 C7.7 10.33 4.4 10.66 1 11 C0.71125 10.236875 0.4225 9.47375 0.125 8.6875 C-0.96269013 5.84970692 -0.96269013 5.84970692 -3 3 C-2.01 2.01 -1.02 1.02 0 0 Z " fill="#B9205C" transform="translate(106,114)"/>
<path d="M0 0 C0.02698189 1.62490954 0.04638757 3.24994633 0.0625 4.875 C0.07410156 5.77992188 0.08570313 6.68484375 0.09765625 7.6171875 C0 10 0 10 -1 12 C-1.66 12 -2.32 12 -3 12 C-3 11.01 -3 10.02 -3 9 C-3.66 9 -4.32 9 -5 9 C-5.33 10.65 -5.66 12.3 -6 14 C-6.99 14.33 -7.98 14.66 -9 15 C-9.33 15.66 -9.66 16.32 -10 17 C-10.25 14.75 -10.25 14.75 -10 12 C-9.319375 11.360625 -8.63875 10.72125 -7.9375 10.0625 C-7.298125 9.381875 -6.65875 8.70125 -6 8 C-6.14349347 4.80045046 -6.14349347 4.80045046 -7 2 C-2.25 0 -2.25 0 0 0 Z " fill="#BF1A5B" transform="translate(193,216)"/>
<path d="M0 0 C4.86993052 3.87380837 9.14414687 8.13977386 13.375 12.6875 C13.91092773 13.25815186 14.44685547 13.82880371 14.99902344 14.41674805 C17.30249931 16.92128003 18.91168611 18.73505833 20 22 C16.04 22 12.08 22 8 22 C8 21.67 8 21.34 8 21 C10.97 21 13.94 21 17 21 C15.92492371 19.70145279 14.83956264 18.41141639 13.75 17.125 C13.14671875 16.40570313 12.5434375 15.68640625 11.921875 14.9453125 C10.02912366 13.02947882 8.46342273 12.03550955 6 11 C5.34 12.32 4.68 13.64 4 15 C4.99 15.99 5.98 16.98 7 18 C6.67 18.66 6.34 19.32 6 20 C4 18.1875 4 18.1875 2 16 C2 15.01 2 14.02 2 13 C2.515625 12.525625 3.03125 12.05125 3.5625 11.5625 C5.23015547 10.11590819 5.23015547 10.11590819 4.9375 8.0625 C3.75935308 5.47057678 2.03171206 3.96617296 0 2 C0 1.34 0 0.68 0 0 Z " fill="#91274C" transform="translate(100,103)"/>
<path d="M0 0 C4.22657462 3.72933055 6.86006078 7.82036938 9.66796875 12.6953125 C10.71286279 14.50319369 11.84172038 16.26258057 13 18 C13.25760279 20.69452521 13.08900053 23.28548375 13 26 C12.67 26 12.34 26 12 26 C11.67 23.36 11.34 20.72 11 18 C9.68 17.67 8.36 17.34 7 17 C7.33 16.01 7.66 15.02 8 14 C7.61067144 11.85744207 7.61067144 11.85744207 7 10 C4.69 9.67 2.38 9.34 0 9 C0.45052734 9.83144531 0.45052734 9.83144531 0.91015625 10.6796875 C1.29042969 11.40414062 1.67070312 12.12859375 2.0625 12.875 C2.44535156 13.59429687 2.82820312 14.31359375 3.22265625 15.0546875 C3.47917969 15.69664062 3.73570312 16.33859375 4 17 C3.67 17.66 3.34 18.32 3 19 C0.10841007 15.40741858 -1.05306524 13.82251115 -0.75 9.125 C-0.5025 8.09375 -0.255 7.0625 0 6 C0.66 6 1.32 6 2 6 C1.34 4.02 0.68 2.04 0 0 Z " fill="#99244E" transform="translate(197,169)"/>
<path d="M0 0 C0.99 0 1.98 0 3 0 C3 1.65 3 3.3 3 5 C2.34 5 1.68 5 1 5 C1.020625 5.721875 1.04125 6.44375 1.0625 7.1875 C1 10 1 10 0.5 12.4375 C-0.11886919 15.0870144 -0.11886919 15.0870144 0.125 18.1875 C0.08375 19.115625 0.0425 20.04375 0 21 C-0.99 21.66 -1.98 22.32 -3 23 C-4.50149828 19.99700345 -4.18438425 16.91523309 -4.1875 13.625 C-4.19974609 12.95210937 -4.21199219 12.27921875 -4.22460938 11.5859375 C-4.23554802 7.88138157 -4.04027865 5.14509357 -2 2 C-1.34 2 -0.68 2 0 2 C0 1.34 0 0.68 0 0 Z " fill="#B8215E" transform="translate(165,68)"/>
<path d="M0 0 C2.4375 0.8125 2.4375 0.8125 5 2 C5.33 2.99 5.66 3.98 6 5 C8.01508358 5.73323796 8.01508358 5.73323796 10 6 C10 5.34 10 4.68 10 4 C11.98 4.66 13.96 5.32 16 6 C15.01 6.33 14.02 6.66 13 7 C13 7.66 13 8.32 13 9 C13.99 9.33 14.98 9.66 16 10 C14.02 10.99 14.02 10.99 12 12 C11.01 11.34 10.02 10.68 9 10 C9 9.01 9 8.02 9 7 C6.36 7.33 3.72 7.66 1 8 C0.67 7.34 0.34 6.68 0 6 C-0.99 5.34 -1.98 4.68 -3 4 C-2.67 3.34 -2.34 2.68 -2 2 C-1.34 2 -0.68 2 0 2 C0 1.34 0 0.68 0 0 Z " fill="#B82260" transform="translate(122,21)"/>
<path d="M0 0 C2.26500509 3.55683309 2.04902127 6.06962406 1.5625 10.1875 C1.34035462 12.121334 1.14390321 14.05877503 1 16 C1.33 16.33 1.66 16.66 2 17 C2.33 13.04 2.66 9.08 3 5 C3.33 5 3.66 5 4 5 C4.33 10.61 4.66 16.22 5 22 C3.35 22 1.7 22 0 22 C-1.58937556 20.41062444 -1.12981143 18.76100154 -1.1328125 16.5625 C-1.13410156 15.66789063 -1.13539063 14.77328125 -1.13671875 13.8515625 C-1.13091797 12.44003906 -1.13091797 12.44003906 -1.125 11 C-1.12886719 10.05898437 -1.13273438 9.11796875 -1.13671875 8.1484375 C-1.13542969 7.25382813 -1.13414062 6.35921875 -1.1328125 5.4375 C-1.13112061 4.19806641 -1.13112061 4.19806641 -1.12939453 2.93359375 C-1 1 -1 1 0 0 Z " fill="#C01B63" transform="translate(190,124)"/>
<path d="M0 0 C0.66 0.33 1.32 0.66 2 1 C2 2.98 2 4.96 2 7 C3.32 6.67 4.64 6.34 6 6 C5.67 9.63 5.34 13.26 5 17 C4.67 17 4.34 17 4 17 C3.67 15.02 3.34 13.04 3 11 C2.01 11 1.02 11 0 11 C0 9.02 0 7.04 0 5 C-0.66 5 -1.32 5 -2 5 C-2 8.63 -2 12.26 -2 16 C-4.45193779 12.32209331 -4.71511798 9.27407725 -4 5 C-2 2 -2 2 0 0 Z " fill="#A52653" transform="translate(192,196)"/>
<path d="M0 0 C1.58971965 2.38457948 2.86741593 4.6304124 4.125 7.1875 C4.47820312 7.90292969 4.83140625 8.61835938 5.1953125 9.35546875 C5.46085938 9.89816406 5.72640625 10.44085938 6 11 C6.99 11 7.98 11 9 11 C9.33 9.35 9.66 7.7 10 6 C10.28875 6.61875 10.5775 7.2375 10.875 7.875 C11.93720042 10.13325765 11.93720042 10.13325765 14 12 C13.625 14.125 13.625 14.125 13 16 C13 15.34 13 14.68 13 14 C12.34 14 11.68 14 11 14 C10.67 15.65 10.34 17.3 10 19 C5.90054589 16.53669166 4.19719317 13.11409278 2.1875 8.9375 C1.86330078 8.30005859 1.53910156 7.66261719 1.20507812 7.00585938 C0.40001714 5.36987891 -0.30807875 3.68694999 -1 2 C-0.67 1.34 -0.34 0.68 0 0 Z " fill="#A62353" transform="translate(186,161)"/>
<path d="M0 0 C0.99 0.33 1.98 0.66 3 1 C3 3.97 3 6.94 3 10 C-0.66305234 10.74926071 -3.42355152 11.2380014 -7 10 C-6.34 10 -5.68 10 -5 10 C-4.9175 9.0925 -4.835 8.185 -4.75 7.25 C-3.90751268 3.59922161 -2.82118382 2.36615417 0 0 Z " fill="#B9205C" transform="translate(184,235)"/>
<path d="M0 0 C0.33 0.66 0.66 1.32 1 2 C-0.299375 2.8353125 -0.299375 2.8353125 -1.625 3.6875 C-7.88276956 7.54163545 -7.88276956 7.54163545 -11.796875 13.37890625 C-11.81501108 15.79310993 -11.81501108 15.79310993 -11 19 C-12.98 19.33 -14.96 19.66 -17 20 C-17 14.94800837 -15.36176565 12.54738461 -12 9 C-8.11442505 5.82686467 -4.10417894 2.88667131 0 0 Z " fill="#F5E9EC" transform="translate(127,179)"/>
<path d="M0 0 C16.5 0 33 0 50 0 C49.01 1.98 48.02 3.96 47 6 C45 3 45 3 45 1 C30.15 1 15.3 1 0 1 C0 0.67 0 0.34 0 0 Z " fill="#A63463" transform="translate(78,46)"/>
<path d="M0 0 C2.31 0.66 4.62 1.32 7 2 C4.19195732 4.96404505 1.81684226 7.44499019 -2 9 C-2.99 7.68 -3.98 6.36 -5 5 C-3.35 3.35 -1.7 1.7 0 0 Z " fill="#B8205E" transform="translate(61,32)"/>
<path d="M0 0 C1.093125 0.495 2.18625 0.99 3.3125 1.5 C6.79966245 3.18839906 6.79966245 3.18839906 10 3 C10.33 4.32 10.66 5.64 11 7 C11.33 6.34 11.66 5.68 12 5 C12 5.66 12 6.32 12 7 C12.99 7.33 13.98 7.66 15 8 C14.34 9.32 13.68 10.64 13 12 C11.20101037 10.76056233 9.41103677 9.50803104 7.625 8.25 C6.62726563 7.55390625 5.62953125 6.8578125 4.6015625 6.140625 C2.16136674 4.13277624 1.08781156 2.90956826 0 0 Z " fill="#D1155A" transform="translate(74,248)"/>
<path d="M0 0 C0.969375 0.845625 1.93875 1.69125 2.9375 2.5625 C7.17152248 6.19785946 11.57169222 9.60596819 16 13 C14.109375 13.58203125 14.109375 13.58203125 12 14 C10.25 12.6875 10.25 12.6875 9 11 C9 10.34 9 9.68 9 9 C8.01 9.33 7.02 9.66 6 10 C4.17578125 8.78515625 4.17578125 8.78515625 2.3125 7.0625 C1.68988281 6.49660156 1.06726562 5.93070313 0.42578125 5.34765625 C-0.04472656 4.90292969 -0.51523437 4.45820313 -1 4 C-0.67 2.68 -0.34 1.36 0 0 Z " fill="#FAE7EC" transform="translate(52,233)"/>
<path d="M0 0 C4.62 0 9.24 0 14 0 C13.01 1.98 12.02 3.96 11 6 C8.36 6 5.72 6 3 6 C3 5.34 3 4.68 3 4 C2.34 3.67 1.68 3.34 1 3 C2 2 2 2 4.06640625 1.90234375 C7.53320312 1.95117188 7.53320312 1.95117188 11 2 C7.37 1.67 3.74 1.34 0 1 C0 0.67 0 0.34 0 0 Z " fill="#8F1846" transform="translate(114,62)"/>
<path d="M0 0 C0.66 0.33 1.32 0.66 2 1 C1.88655624 3.1464753 1.75893655 5.29220592 1.625 7.4375 C1.55539063 8.63246094 1.48578125 9.82742187 1.4140625 11.05859375 C1.27742188 12.02925781 1.14078125 12.99992187 1 14 C0.01 14.495 0.01 14.495 -1 15 C-3 13 -3 13 -3.1953125 10.8359375 C-3.17210937 10.02382812 -3.14890625 9.21171875 -3.125 8.375 C-3.10695312 7.55773437 -3.08890625 6.74046875 -3.0703125 5.8984375 C-3.04710937 5.27195312 -3.02390625 4.64546875 -3 4 C-2.01 3.67 -1.02 3.34 0 3 C0 2.01 0 1.02 0 0 Z M-2 15 C-1.67 15.66 -1.34 16.32 -1 17 C-1.99 17.99 -2.98 18.98 -4 20 C-3.125 16.125 -3.125 16.125 -2 15 Z " fill="#BA2962" transform="translate(41,102)"/>
<path d="M0 0 C0 2 0 4 0 6 C0.99 5.67 1.98 5.34 3 5 C4 6 4 6 4.09765625 7.84765625 C4.06510417 9.8984375 4.03255208 11.94921875 4 14 C3.34 13.01 2.68 12.02 2 11 C1.34 11 0.68 11 0 11 C-1.63676257 12.9600281 -1.63676257 12.9600281 -3 15 C-3.37379162 5.46831364 -3.37379162 5.46831364 -1 1 C-0.67 0.67 -0.34 0.34 0 0 Z " fill="#A81A4D" transform="translate(184,225)"/>
<path d="M0 0 C0 6.27 0 12.54 0 19 C-0.66 17.68 -1.32 16.36 -2 15 C-2.66 15.66 -3.32 16.32 -4 17 C-4.97004667 13.83265066 -5.04793039 11.2296308 -4.75 7.9375 C-4.68296875 7.08027344 -4.6159375 6.22304687 -4.546875 5.33984375 C-4.00363049 3.01553333 -2.84195312 0 0 0 Z " fill="#991343" transform="translate(195,126)"/>
<path d="M0 0 C3.3 0 6.6 0 10 0 C9.01 2.97 8.02 5.94 7 9 C1.90340522 6.45170261 1.89128086 5.10645833 0 0 Z " fill="#F6F0F2" transform="translate(115,263)"/>
<path d="M0 0 C0.66 0.33 1.32 0.66 2 1 C-0.61678563 2.70051054 -3.24462239 4.38310507 -5.875 6.0625 C-6.62136719 6.54783203 -7.36773437 7.03316406 -8.13671875 7.53320312 C-8.85214844 7.98759766 -9.56757813 8.44199219 -10.3046875 8.91015625 C-10.96452637 9.33433838 -11.62436523 9.75852051 -12.30419922 10.19555664 C-13.14362061 10.5937561 -13.14362061 10.5937561 -14 11 C-14.66 10.67 -15.32 10.34 -16 10 C-15.34 7.69 -14.68 5.38 -14 3 C-12.68 3 -11.36 3 -10 3 C-10 3.66 -10 4.32 -10 5 C-9.30132812 4.62746094 -8.60265625 4.25492188 -7.8828125 3.87109375 C-6.51769531 3.16146484 -6.51769531 3.16146484 -5.125 2.4375 C-4.22007812 1.96183594 -3.31515625 1.48617187 -2.3828125 0.99609375 C-1.20332031 0.50302734 -1.20332031 0.50302734 0 0 Z " fill="#AB2353" transform="translate(138,171)"/>
<path d="M0 0 C0.33 1.98 0.66 3.96 1 6 C-1.97 5.505 -1.97 5.505 -5 5 C-5 6.32 -5 7.64 -5 9 C-6.32 9.33 -7.64 9.66 -9 10 C-9.33 8.02 -9.66 6.04 -10 4 C-8.71086513 3.32845067 -7.41859796 2.66291141 -6.125 2 C-5.40570313 1.62875 -4.68640625 1.2575 -3.9453125 0.875 C-2 0 -2 0 0 0 Z " fill="#C21C5C" transform="translate(203,193)"/>
<path d="M0 0 C2.35243131 2.35243131 2.91585023 4.18286453 4 7.3125 C5.25695868 10.91152622 6.55967048 14.46990668 8 18 C6.68 17.67 5.36 17.34 4 17 C4 15.35 4 13.7 4 12 C3.01 12 2.02 12 1 12 C0.67 10.35 0.34 8.7 0 7 C-0.66 7 -1.32 7 -2 7 C-1.34 4.69 -0.68 2.38 0 0 Z " fill="#F6E5E8" transform="translate(22,186)"/>
<path d="M0 0 C0.33 0 0.66 0 1 0 C1 6.6 1 13.2 1 20 C0.01 19.67 -0.98 19.34 -2 19 C-2.22262303 12.2718373 -1.95021536 6.46008837 0 0 Z " fill="#AC2752" transform="translate(103,211)"/>
<path d="M0 0 C0.33 0.99 0.66 1.98 1 3 C-2.49087093 7.0042343 -4.64951939 8.62671065 -10 9 C-10.33 7.68 -10.66 6.36 -11 5 C-8 4 -8 4 -5 5 C-4.67 3.68 -4.34 2.36 -4 1 C-2.68 0.67 -1.36 0.34 0 0 Z " fill="#A32550" transform="translate(208,193)"/>
<path d="M0 0 C0.99 0.66 1.98 1.32 3 2 C3 2.66 3 3.32 3 4 C3.66 4 4.32 4 5 4 C5.33 5.32 5.66 6.64 6 8 C6.66 7.34 7.32 6.68 8 6 C8.48108275 7.41601714 8.95978141 8.83284437 9.4375 10.25 C9.83775391 11.43335938 9.83775391 11.43335938 10.24609375 12.640625 C10.91954708 14.74821988 11.49150595 16.84753973 12 19 C9.25954023 16.45651078 7.17387823 13.5968717 5 10.5625 C2.69425469 7.35279772 0.38438482 4.15185868 -2 1 C-1.34 0.67 -0.68 0.34 0 0 Z " fill="#99204B" transform="translate(144,38)"/>
<path d="M0 0 C0.66 0.99 1.32 1.98 2 3 C1.67 3.66 1.34 4.32 1 5 C0.01 4.67 -0.98 4.34 -2 4 C-3.67540664 4.64438717 -5.34183216 5.31246699 -7 6 C-8.32 6 -9.64 6 -11 6 C-11.33 6.99 -11.66 7.98 -12 9 C-12.99 9 -13.98 9 -15 9 C-13.78859771 5.36579314 -12.26489476 4.68856114 -8.98828125 2.91796875 C-6.0543009 1.56338057 -3.13640844 0.76810003 0 0 Z " fill="#AC2154" transform="translate(140,127)"/>
<path d="M0 0 C1.21275607 3.63826821 0.35843277 5.14527795 -1.03125 8.59375 C-2.15032164 11.37337956 -3.17051607 14.18150167 -4.1875 17 C-4.53167969 17.94875 -4.87585938 18.8975 -5.23046875 19.875 C-5.48441406 20.57625 -5.73835938 21.2775 -6 22 C-6.33 22 -6.66 22 -7 22 C-7.33 19.03 -7.66 16.06 -8 13 C-7.01 13 -6.02 13 -5 13 C-4.97421875 12.39671875 -4.9484375 11.7934375 -4.921875 11.171875 C-4.45283019 4.5626072 -4.45283019 4.5626072 -1.9375 1.4375 C-1.298125 0.963125 -0.65875 0.48875 0 0 Z " fill="#91264B" transform="translate(133,263)"/>
<path d="M0 0 C0.99 0.66 1.98 1.32 3 2 C2.67 2.99 2.34 3.98 2 5 C1.34 5 0.68 5 0 5 C0 5.66 0 6.32 0 7 C-0.66 7 -1.32 7 -2 7 C-2 12.61 -2 18.22 -2 24 C-2.33 24 -2.66 24 -3 24 C-3.27646774 20.93781928 -3.52190671 17.8783422 -3.75 14.8125 C-3.83121094 13.94818359 -3.91242188 13.08386719 -3.99609375 12.19335938 C-4.44413244 5.69679834 -4.44413244 5.69679834 -2.015625 1.88671875 C-1.35046875 1.26410156 -0.6853125 0.64148437 0 0 Z " fill="#AB1A51" transform="translate(165,63)"/>
<path d="M0 0 C8.00180661 -0.54249536 14.46595398 1.39161312 22 4 C21.34 4.66 20.68 5.32 20 6 C18.02 5.34 16.04 4.68 14 4 C14 4.66 14 5.32 14 6 C13.01 6.33 12.02 6.66 11 7 C11 5.35 11 3.7 11 2 C7.37 1.67 3.74 1.34 0 1 C0 0.67 0 0.34 0 0 Z " fill="#8F274D" transform="translate(108,17)"/>
<path d="M0 0 C1.18239258 0.02707031 1.18239258 0.02707031 2.38867188 0.0546875 C4.32214261 0.10155952 6.25498285 0.1732959 8.1875 0.25 C8.1875 0.58 8.1875 0.91 8.1875 1.25 C7.45144531 1.31058594 6.71539062 1.37117187 5.95703125 1.43359375 C4.49330078 1.55927734 4.49330078 1.55927734 3 1.6875 C2.03707031 1.76871094 1.07414063 1.84992188 0.08203125 1.93359375 C-5.38208394 2.25300138 -5.38208394 2.25300138 -9.5 5.3125 C-9.933125 5.951875 -10.36625 6.59125 -10.8125 7.25 C-11.4725 7.25 -12.1325 7.25 -12.8125 7.25 C-13.1425 6.26 -13.4725 5.27 -13.8125 4.25 C-9.37162272 -0.27097326 -5.96390291 -0.25995218 0 0 Z " fill="#ECD6DC" transform="translate(151.8125,252.75)"/>
<path d="M0 0 C1.32 0.66 2.64 1.32 4 2 C3.34 4.97 2.68 7.94 2 11 C-2.5 8.75 -2.5 8.75 -4 5 C-3.01 4.34 -2.02 3.68 -1 3 C-0.67 2.01 -0.34 1.02 0 0 Z " fill="#B91F5E" transform="translate(193,163)"/>
<path d="M0 0 C0.66 0.66 1.32 1.32 2 2 C1.64477539 3.81347656 1.64477539 3.81347656 1 6 C0.85701869 7.6586512 0.75458775 9.3210869 0.68359375 10.984375 C0.64169922 11.91894531 0.59980469 12.85351562 0.55664062 13.81640625 C0.51732422 14.78449219 0.47800781 15.75257813 0.4375 16.75 C0.39431641 17.73355469 0.35113281 18.71710938 0.30664062 19.73046875 C0.20077948 22.15351275 0.09869829 24.5766554 0 27 C-0.33 27 -0.66 27 -1 27 C-2.37801675 17.52613481 -2.18687619 9.35280086 0 0 Z " fill="#9F1E4B" transform="translate(21,147)"/>
<path d="M0 0 C0.66 0.66 1.32 1.32 2 2 C4.65537372 2.56520003 7.29144713 2.73788198 10 3 C7.64722731 5.72426311 5.37503669 6.8141763 2 8 C2.33 7.01 2.66 6.02 3 5 C1.68 5 0.36 5 -1 5 C-1 4.34 -1 3.68 -1 3 C-2.32 3.99 -3.64 4.98 -5 6 C-5.66 5.67 -6.32 5.34 -7 5 C-2.25 0 -2.25 0 0 0 Z " fill="#95224D" transform="translate(64,29)"/>
<path d="M0 0 C4.03895528 1.75761131 6.38128213 4.33592037 9.31640625 7.5390625 C11.00612769 9.32769871 11.00612769 9.32769871 14 9 C14.66 9 15.32 9 16 9 C16.66 8.34 17.32 7.68 18 7 C17.6875 9.375 17.6875 9.375 17 12 C16.01 12.66 15.02 13.32 14 14 C12.41224451 12.60919892 10.82999061 11.21211596 9.25 9.8125 C8.36828125 9.03519531 7.4865625 8.25789063 6.578125 7.45703125 C4.12113732 5.11544754 2.05137234 2.69841735 0 0 Z " fill="#972249" transform="translate(108,278)"/>
<path d="M0 0 C1.32 0 2.64 0 4 0 C4.625 2.875 4.625 2.875 5 6 C4.34 6.66 3.68 7.32 3 8 C0.375 7.625 0.375 7.625 -2 7 C-1.34 4.69 -0.68 2.38 0 0 Z " fill="#B72160" transform="translate(159,55)"/>
<path d="M0 0 C1.65 1.65 3.3 3.3 5 5 C4.01 5.495 4.01 5.495 3 6 C2.67 6.99 2.34 7.98 2 9 C1.01 9 0.02 9 -1 9 C-2.4606285 6.35261084 -3 5.10551666 -3 2 C-2.01 1.34 -1.02 0.68 0 0 Z " fill="#B1215E" transform="translate(155,44)"/>
<path d="M0 0 C2.90703436 1.2332873 3.65606908 3.13245971 5.0625 5.875 C4.0725 6.205 3.0825 6.535 2.0625 6.875 C1.7325 7.865 1.4025 8.855 1.0625 9.875 C0.7325 8.225 0.4025 6.575 0.0625 4.875 C-0.5975 4.875 -1.2575 4.875 -1.9375 4.875 C-2.5975 3.555 -3.2575 2.235 -3.9375 0.875 C-1.9375 -0.125 -1.9375 -0.125 0 0 Z " fill="#B81E60" transform="translate(148.9375,37.125)"/>
<path d="M0 0 C0.36814024 6.50381098 0.36814024 6.50381098 -1.4375 8.9375 C-3 10 -3 10 -4 10 C-5.34136367 10.65035814 -6.67532254 11.3162955 -8 12 C-7.71125 11.29875 -7.4225 10.5975 -7.125 9.875 C-5.9371807 6.96939693 -5.9371807 6.96939693 -5.0625 3.75 C-4.711875 2.8425 -4.36125 1.935 -4 1 C-1 0 -1 0 0 0 Z " fill="#F7F0EF" transform="translate(184,129)"/>
<path d="M0 0 C1.11375 0.556875 1.11375 0.556875 2.25 1.125 C1.92 2.115 1.59 3.105 1.25 4.125 C-1.06 4.455 -3.37 4.785 -5.75 5.125 C-6.08 3.805 -6.41 2.485 -6.75 1.125 C-4.02098495 -0.69434337 -3.21400584 -1.02263822 0 0 Z " fill="#B91F5C" transform="translate(99.75,79.875)"/>
<path d="M0 0 C4.82357076 4.53983131 9.87609505 9.62828516 12 16 C7.60841671 14.5361389 7.12052567 12.02168662 5 8 C3.68 8.33 2.36 8.66 1 9 C1.20625 8.443125 1.4125 7.88625 1.625 7.3125 C2.10695211 4.340462 1.26565028 2.68020059 0 0 Z " fill="#903255" transform="translate(151,37)"/>
<path d="M0 0 C0 0.99 0 1.98 0 3 C-7.07555499 6.0017506 -13.37048445 6.34855655 -21 6 C-21.33 5.01 -21.66 4.02 -22 3 C-20.60587891 3.03480469 -20.60587891 3.03480469 -19.18359375 3.0703125 C-9.89163256 3.27070202 -9.89163256 3.27070202 -1 1 C-0.67 0.67 -0.34 0.34 0 0 Z " fill="#F5E1E7" transform="translate(184,251)"/>
<path d="M0 0 C0.433125 0.639375 0.86625 1.27875 1.3125 1.9375 C2.91239177 4.26746003 2.91239177 4.26746003 6 5 C6 4.34 6 3.68 6 3 C7.32 3.33 8.64 3.66 10 4 C9.01 4.33 8.02 4.66 7 5 C7.33 5.99 7.66 6.98 8 8 C8.66 8.33 9.32 8.66 10 9 C9.67 9.66 9.34 10.32 9 11 C7.53737408 9.9015258 6.08004497 8.7959964 4.625 7.6875 C3.81289062 7.07261719 3.00078125 6.45773438 2.1640625 5.82421875 C0 4 0 4 -2 1 C-1.34 0.67 -0.68 0.34 0 0 Z " fill="#BA1C53" transform="translate(63,239)"/>
<path d="M0 0 C1.5 1 1.5 1 3 3 C3.27345479 5.71846235 3.13491285 8.25677199 3 11 C-0.08089673 8.22719294 -1.68775452 5.93673644 -3 2 C-2.01 1.34 -1.02 0.68 0 0 Z " fill="#BE1C55" transform="translate(34,203)"/>
<path d="M0 0 C0.66 0.33 1.32 0.66 2 1 C1.67 3.31 1.34 5.62 1 8 C-0.65 8.33 -2.3 8.66 -4 9 C-3.67 8.34 -3.34 7.68 -3 7 C-3.99 6.34 -4.98 5.68 -6 5 C-4.02 3.35 -2.04 1.7 0 0 Z " fill="#F4F3F5" transform="translate(110,78)"/>
<path d="M0 0 C2.75 0.125 2.75 0.125 6 1 C8 3.75 8 3.75 10 7 C11.90920102 8.8241376 13.90591157 10.38184076 16 12 C11.6258594 12 9.45270123 9.30804972 6.3125 6.5625 C5.70599609 6.04623047 5.09949219 5.52996094 4.47460938 4.99804688 C2.95848982 3.69339957 1.47610115 2.34975868 0 1 C0 0.67 0 0.34 0 0 Z " fill="#A5274E" transform="translate(89,262)"/>
<path d="M0 0 C1.2065625 0.0309375 1.2065625 0.0309375 2.4375 0.0625 C2.4375 3.0625 2.4375 3.0625 1.4375 5.0625 C1.71692455 6.73904729 2.04578247 8.40858154 2.4375 10.0625 C1.4475 10.0625 0.4575 10.0625 -0.5625 10.0625 C-0.748125 8.94875 -0.748125 8.94875 -0.9375 7.8125 C-1.51736701 5.26108515 -2.29958739 3.3357427 -3.5625 1.0625 C-2.5625 0.0625 -2.5625 0.0625 0 0 Z " fill="#A71F4C" transform="translate(185.5625,213.9375)"/>
<path d="M0 0 C7.75 0.875 7.75 0.875 10 2 C10 3.65 10 5.3 10 7 C9.01 7.33 8.02 7.66 7 8 C5.83035398 6.8572081 4.66435444 5.71068285 3.5 4.5625 C2.8503125 3.92441406 2.200625 3.28632812 1.53125 2.62890625 C0 1 0 1 0 0 Z " fill="#F5E9EE" transform="translate(171,87)"/>
<path d="M0 0 C0.66 0.33 1.32 0.66 2 1 C1.58894145 6.24099655 0.75960806 9.24039194 -3 13 C-3.66 13 -4.32 13 -5 13 C-5 12.01 -5 11.02 -5 10 C-4.34 10 -3.68 10 -3 10 C-2.67 8.68 -2.34 7.36 -2 6 C-1.34 6 -0.68 6 0 6 C0 4.02 0 2.04 0 0 Z " fill="#A23B60" transform="translate(187,239)"/>
<path d="M0 0 C0.99 0.33 1.98 0.66 3 1 C2.98259766 2.42892578 2.98259766 2.42892578 2.96484375 3.88671875 C2.95582031 5.14097656 2.94679687 6.39523438 2.9375 7.6875 C2.92589844 8.92886719 2.91429687 10.17023438 2.90234375 11.44921875 C2.98521327 14.46235454 3.29160551 17.08275339 4 20 C0.86892164 16.61416198 0.66449222 14.28890538 0.8125 9.75 C0.85310547 8.13351563 0.85310547 8.13351563 0.89453125 6.484375 C0.92933594 5.66453125 0.96414062 4.8446875 1 4 C0.34 4 -0.32 4 -1 4 C-0.67 2.68 -0.34 1.36 0 0 Z " fill="#931944" transform="translate(191,145)"/>
<path d="M0 0 C0 0.99 0 1.98 0 3 C-1.0725 3.144375 -2.145 3.28875 -3.25 3.4375 C-6.77502067 3.86720253 -6.77502067 3.86720253 -9.1875 4.6875 C-11.65795789 5.11344102 -12.90573222 4.27151973 -15 3 C-9.63999211 0.74315457 -5.8022175 -0.36263859 0 0 Z " fill="#B91E5D" transform="translate(119,19)"/>
<path d="M0 0 C3.71434692 3.15719488 6.69795559 7.34200918 7.25390625 12.234375 C7.25049537 14.15810966 7.13466795 16.08098171 7 18 C6.67 18 6.34 18 6 18 C5.67 15.36 5.34 12.72 5 10 C3.68 9.67 2.36 9.34 1 9 C1.33 8.01 1.66 7.02 2 6 C1.11680706 2.84979639 1.11680706 2.84979639 0 0 Z " fill="#913C5B" transform="translate(203,177)"/>
<path d="M0 0 C0.66 0 1.32 0 2 0 C2.33 0.66 2.66 1.32 3 2 C3.66 1.67 4.32 1.34 5 1 C5.66 1.33 6.32 1.66 7 2 C7 2.99 7 3.98 7 5 C7.66 5.33 8.32 5.66 9 6 C8.67 7.32 8.34 8.64 8 10 C6.66070495 8.71451591 5.32871357 7.42141845 4 6.125 C2.88625 5.04605469 2.88625 5.04605469 1.75 3.9453125 C0 2 0 2 0 0 Z " fill="#A41F50" transform="translate(91,105)"/>
<path d="M0 0 C0.33 0 0.66 0 1 0 C1.33 3.3 1.66 6.6 2 10 C2.66 9.67 3.32 9.34 4 9 C4.1875 11.875 4.1875 11.875 4 15 C3.01 15.66 2.02 16.32 1 17 C-0.53266582 13.93466836 -0.10276471 10.73245728 -0.0625 7.375 C-0.05798828 6.66859375 -0.05347656 5.9621875 -0.04882812 5.234375 C-0.03703875 3.48954725 -0.01910324 1.744763 0 0 Z " fill="#B44B72" transform="translate(161,74)"/>
<path d="M0 0 C2 0.875 2 0.875 4 2 C4.66 2.33 5.32 2.66 6 3 C6 3.66 6 4.32 6 5 C3.36 5 0.72 5 -2 5 C-2 3.68 -2 2.36 -2 1 C-1.34 0.67 -0.68 0.34 0 0 Z " fill="#B5215E" transform="translate(68,27)"/>
<path d="M0 0 C0.66 0 1.32 0 2 0 C2 4.62 2 9.24 2 14 C0.01163916 11.01745874 -0.34336635 9.86191192 -0.6875 6.4375 C-0.77386719 5.65246094 -0.86023438 4.86742187 -0.94921875 4.05859375 C-1 2 -1 2 0 0 Z " fill="#B43A61" transform="translate(21,172)"/>
<path d="M0 0 C4.8333472 -0.08333357 9.23692563 0.04738513 14 1 C13.67 1.66 13.34 2.32 13 3 C10.03 2.505 10.03 2.505 7 2 C7 2.66 7 3.32 7 4 C6.34 4 5.68 4 5 4 C5 3.34 5 2.68 5 2 C3.02 2.33 1.04 2.66 -1 3 C-0.67 2.01 -0.34 1.02 0 0 Z " fill="#BD225D" transform="translate(77,141)"/>
<path d="M0 0 C0.98291016 0.00322266 1.96582031 0.00644531 2.97851562 0.00976562 C4.51475586 0.02233398 4.51475586 0.02233398 6.08203125 0.03515625 C7.11779297 0.03966797 8.15355469 0.04417969 9.22070312 0.04882812 C11.77870391 0.06061615 14.33658858 0.0770711 16.89453125 0.09765625 C16.89453125 0.42765625 16.89453125 0.75765625 16.89453125 1.09765625 C15.62996094 1.15824219 14.36539063 1.21882813 13.0625 1.28125 C11.40233254 1.36566529 9.74217688 1.4503128 8.08203125 1.53515625 C7.24865234 1.57447266 6.41527344 1.61378906 5.55664062 1.65429688 C4.75419922 1.69619141 3.95175781 1.73808594 3.125 1.78125 C2.38660889 1.81790771 1.64821777 1.85456543 0.88745117 1.89233398 C-1.31296375 2.04607766 -1.31296375 2.04607766 -4.10546875 3.09765625 C-6.29296875 2.16015625 -6.29296875 2.16015625 -8.10546875 1.09765625 C-5.10530963 0.09760321 -3.13123119 -0.0180996 0 0 Z " fill="#E7C7D2" transform="translate(97.10546875,24.90234375)"/>
<path d="M0 0 C0.66 0.33 1.32 0.66 2 1 C2 1.66 2 2.32 2 3 C0.00715862 4.3440093 -1.99419671 5.67541292 -4 7 C-5.6857124 8.64740076 -7.3563186 10.31066078 -9 12 C-9.99 12.495 -9.99 12.495 -11 13 C-9.46356148 9.31930113 -7.21849055 7.01224796 -4.375 4.25 C-3.55773437 3.45078125 -2.74046875 2.6515625 -1.8984375 1.828125 C-0.95871094 0.92320313 -0.95871094 0.92320313 0 0 Z " fill="#BE1F58" transform="translate(149,116)"/>
<path d="M0 0 C3.00617269 3.00617269 2.59585316 5.82381598 3 10 C1.68 10 0.36 10 -1 10 C-0.67 6.7 -0.34 3.4 0 0 Z " fill="#9C1D4C" transform="translate(43,102)"/>
<path d="M0 0 C1.98 0 3.96 0 6 0 C6.33 0.99 6.66 1.98 7 3 C7.66 2.67 8.32 2.34 9 2 C9 2.99 9 3.98 9 5 C10.32 5.66 11.64 6.32 13 7 C9.51038791 7 7.88519705 6.09620626 4.8125 4.5 C3.91144531 4.0359375 3.01039063 3.571875 2.08203125 3.09375 C1.39496094 2.7328125 0.70789063 2.371875 0 2 C0 1.34 0 0.68 0 0 Z " fill="#992E53" transform="translate(125,28)"/>
<path d="M0 0 C1.32 0.33 2.64 0.66 4 1 C4 2.65 4 4.3 4 6 C1.69 5.67 -0.62 5.34 -3 5 C-2.34 4.67 -1.68 4.34 -1 4 C-0.34786708 1.97536745 -0.34786708 1.97536745 0 0 Z " fill="#B7205E" transform="translate(87,19)"/>
<path d="M0 0 C0.66 0 1.32 0 2 0 C2 0.99 2 1.98 2 3 C1.34 3 0.68 3 0 3 C0.020625 3.94875 0.04125 4.8975 0.0625 5.875 C0 9 0 9 -1 11 C-1.66 11 -2.32 11 -3 11 C-3.33 11.66 -3.66 12.32 -4 13 C-3.50269348 8.02693484 -2.44697666 4.36200187 0 0 Z " fill="#A22550" transform="translate(127,258)"/>
<path d="M0 0 C2.41793589 1.20896794 2.79103206 1.58206411 4 4 C4.99 4.33 5.98 4.66 7 5 C6.0925 5.433125 5.185 5.86625 4.25 6.3125 C1.56781551 7.70517271 -0.66139605 9.11112757 -3 11 C-2.690625 10.401875 -2.38125 9.80375 -2.0625 9.1875 C-0.12172731 5.23497392 -0.12172731 5.23497392 -1 1 C-0.67 0.67 -0.34 0.34 0 0 Z " fill="#A21A4C" transform="translate(139,248)"/>
<path d="M0 0 C3.3 0 6.6 0 10 0 C9.67 0.66 9.34 1.32 9 2 C7.68 2 6.36 2 5 2 C3.2488427 3.4166747 3.2488427 3.4166747 2 5 C1.34 4.67 0.68 4.34 0 4 C0 2.68 0 1.36 0 0 Z " fill="#F3F1F3" transform="translate(113,70)"/>
<path d="M0 0 C1 2 1 2 -0.0625 5.5 C-1.46306098 8.64798987 -1.82603484 8.92154512 -5.1875 10.4375 C-6.115625 10.623125 -7.04375 10.80875 -8 11 C-7.04454634 9.53977837 -6.08553322 8.08188532 -5.125 6.625 C-4.59132812 5.81289062 -4.05765625 5.00078125 -3.5078125 4.1640625 C-2 2 -2 2 0 0 Z " fill="#F5E1EC" transform="translate(174,143)"/>
<path d="M0 0 C2.97 0 5.94 0 9 0 C9 0.66 9 1.32 9 2 C7.02 2.33 5.04 2.66 3 3 C3 2.34 3 1.68 3 1 C2.01 0.67 1.02 0.34 0 0 Z M2 3 C4.475 3.495 4.475 3.495 7 4 C6.67 4.99 6.34 5.98 6 7 C4.68 6.34 3.36 5.68 2 5 C2 4.34 2 3.68 2 3 Z " fill="#AA2C5D" transform="translate(101,140)"/>
<path d="M0 0 C2 3 2 3 2 5 C1.34 5 0.68 5 0 5 C-1.32 7.64 -2.64 10.28 -4 13 C-5.20545511 9.38363467 -4.7015245 8.7128829 -3.125 5.375 C-2.75632812 4.57835937 -2.38765625 3.78171875 -2.0078125 2.9609375 C-1 1 -1 1 0 0 Z " fill="#99234A" transform="translate(28,128)"/>
<path d="M0 0 C0 4 0 4 -1 6 C-2.65 5.67 -4.3 5.34 -6 5 C-6 5.66 -6 6.32 -6 7 C-6.66 7 -7.32 7 -8 7 C-6.47663111 3.31852519 -4.31953005 0 0 0 Z " fill="#B22861" transform="translate(46,55)"/>
<path d="M0 0 C2.97 0.495 2.97 0.495 6 1 C4.02 3.31 2.04 5.62 0 8 C-0.66 7.34 -1.32 6.68 -2 6 C-1.67 5.38125 -1.34 4.7625 -1 4.125 C0.14193235 2.08981656 0.14193235 2.08981656 0 0 Z " fill="#EFDDE6" transform="translate(49,35)"/>
<path d="M0 0 C1 2 2 4 3 6 C2.0625 8.125 2.0625 8.125 1 10 C0.34 10 -0.32 10 -1 10 C-2.46726798 6.18510326 -1.43336419 3.70988378 0 0 Z " fill="#EEE5E7" transform="translate(127,282)"/>
<path d="M0 0 C0.928125 0.350625 1.85625 0.70125 2.8125 1.0625 C5.9802953 2.32382628 5.9802953 2.32382628 9 1 C9.66 2.98 10.32 4.96 11 7 C9.53708696 6.4070085 8.07978487 5.80016177 6.625 5.1875 C5.81289062 4.85105469 5.00078125 4.51460938 4.1640625 4.16796875 C2 3 2 3 0 0 Z " fill="#BA1E53" transform="translate(82,257)"/>
<path d="M0 0 C0.66 0.33 1.32 0.66 2 1 C1.67 1.66 1.34 2.32 1 3 C0.92966231 4.87379605 0.9156978 6.75001102 0.9375 8.625 C0.94652344 9.62789062 0.95554688 10.63078125 0.96484375 11.6640625 C0.97644531 12.43492187 0.98804688 13.20578125 1 14 C0.01 14.33 -0.98 14.66 -2 15 C-2.05406122 13.06280622 -2.09282025 11.12518079 -2.125 9.1875 C-2.14820313 8.10855469 -2.17140625 7.02960938 -2.1953125 5.91796875 C-2 3 -2 3 0 0 Z " fill="#F7E0E9" transform="translate(188,198)"/>
<path d="M0 0 C0.33 0 0.66 0 1 0 C1.33 5.61 1.66 11.22 2 17 C0.68 16.67 -0.64 16.34 -2 16 C-1.34 10.72 -0.68 5.44 0 0 Z " fill="#B7215D" transform="translate(193,129)"/>
<path d="M0 0 C0.33 0 0.66 0 1 0 C1.20395079 3.67111414 0.76683472 5.79761207 -1 9 C-1 9.66 -1 10.32 -1 11 C-1.66 11 -2.32 11 -3 11 C-3.33 8.36 -3.66 5.72 -4 3 C-3.01 3 -2.02 3 -1 3 C-0.67 2.01 -0.34 1.02 0 0 Z " fill="#AA1B4F" transform="translate(189,117)"/>
<path d="M0 0 C0.66 0 1.32 0 2 0 C1.34 1.98 0.68 3.96 0 6 C-0.66 6 -1.32 6 -2 6 C-2.33 7.98 -2.66 9.96 -3 12 C-3.33 12 -3.66 12 -4 12 C-3.125 4.25 -3.125 4.25 -2 2 C-1.34 2 -0.68 2 0 2 C0 1.34 0 0.68 0 0 Z " fill="#9C1C4C" transform="translate(40,60)"/>
<path d="M0 0 C0.66 0.66 1.32 1.32 2 2 C1.34 2 0.68 2 0 2 C0.33 3.32 0.66 4.64 1 6 C-0.8125 6.6875 -0.8125 6.6875 -3 7 C-4.75 5.625 -4.75 5.625 -6 4 C-6 3.67 -6 3.34 -6 3 C-4.35 3 -2.7 3 -1 3 C-0.67 2.01 -0.34 1.02 0 0 Z " fill="#B72B61" transform="translate(182,247)"/>
<path d="M0 0 C0.66 0.33 1.32 0.66 2 1 C1.67 3.31 1.34 5.62 1 8 C-0.32 7.34 -1.64 6.68 -3 6 C-2.67 5.01 -2.34 4.02 -2 3 C-1.34 3 -0.68 3 0 3 C0 2.01 0 1.02 0 0 Z " fill="#B91D5A" transform="translate(41,102)"/>
<path d="M0 0 C1.65 0.33 3.3 0.66 5 1 C4.67 2.65 4.34 4.3 4 6 C2.0625 5.625 2.0625 5.625 0 5 C-0.33 4.34 -0.66 3.68 -1 3 C-0.67 2.01 -0.34 1.02 0 0 Z " fill="#F0E8EC" transform="translate(119,290)"/>
<path d="M0 0 C0.99 0 1.98 0 3 0 C4.46726798 3.81489674 3.43336419 6.29011622 2 10 C1.67 10 1.34 10 1 10 C1 8.02 1 6.04 1 4 C0.34 3.67 -0.32 3.34 -1 3 C-0.67 2.01 -0.34 1.02 0 0 Z " fill="#AC1E53" transform="translate(192,212)"/>
<path d="M0 0 C0.99 0 1.98 0 3 0 C3.33 1.32 3.66 2.64 4 4 C3.34 4 2.68 4 2 4 C1.67 4.66 1.34 5.32 1 6 C0.01 6.99 -0.98 7.98 -2 9 C-1.34 6.03 -0.68 3.06 0 0 Z " fill="#9E1A4B" transform="translate(161,89)"/>
<path d="M0 0 C1.47118907 3.82509158 0.45442741 6.28312995 -1 10 C-1.33 10.66 -1.66 11.32 -2 12 C-2.99 11.67 -3.98 11.34 -5 11 C-4.35474023 9.5414128 -3.7087728 8.08313863 -3.0625 6.625 C-2.70285156 5.81289063 -2.34320313 5.00078125 -1.97265625 4.1640625 C-1.3430097 2.76316215 -0.68687358 1.37374716 0 0 Z " fill="#F3E6E9" transform="translate(50,56)"/>
<path d="M0 0 C2.96865509 2.54456151 4.3619751 5.48994665 6 9 C1.125 7.125 1.125 7.125 0 6 C-0.04080783 4.00041636 -0.04254356 1.99954746 0 0 Z " fill="#9A284E" transform="translate(115,264)"/>
<path d="M0 0 C2.31 0.66 4.62 1.32 7 2 C7 3.65 7 5.3 7 7 C4.13302508 5.71480435 2.02392288 4.42870746 0 2 C0 1.34 0 0.68 0 0 Z " fill="#BB194F" transform="translate(44,223)"/>
<path d="M0 0 C1.98 1.65 3.96 3.3 6 5 C5.01 5.99 4.02 6.98 3 8 C2.01 7.34 1.02 6.68 0 6 C-0.1875 2.875 -0.1875 2.875 0 0 Z " fill="#B91C5D" transform="translate(54,125)"/>
<path d="M0 0 C0.99 0.33 1.98 0.66 3 1 C3.9765625 7.0546875 3.9765625 7.0546875 4 9 C3.34 9.66 2.68 10.32 2 11 C0.80712589 7.12315913 0 4.08378077 0 0 Z " fill="#EFD7E2" transform="translate(105,232)"/>
<path d="M0 0 C3.98069267 2.87494471 6.43571997 5.82117329 9 10 C5.32408105 8.9789114 4.0660202 8.08564783 1.6875 5 C0 2 0 2 0 0 Z " fill="#F6DDE6" transform="translate(39,219)"/>
<path d="M0 0 C1.32 0.33 2.64 0.66 4 1 C3.979375 1.94875 3.95875 2.8975 3.9375 3.875 C3.77448174 6.90666283 3.77448174 6.90666283 5 9 C4.01 8.67 3.02 8.34 2 8 C0.5522078 5.10441559 0 3.25811062 0 0 Z " fill="#B21549" transform="translate(23,185)"/>
<path d="M0 0 C2.31 0.33 4.62 0.66 7 1 C6.34 2.65 5.68 4.3 5 6 C3.2925002 4.71937515 1.62626404 3.38232443 0 2 C0 1.34 0 0.68 0 0 Z " fill="#EFE4E9" transform="translate(88,88)"/>
<path d="M0 0 C0.1953125 6.0546875 0.1953125 6.0546875 0 8 C-0.66 8.66 -1.32 9.32 -2 10 C-3 9 -3 9 -3.09765625 7.15234375 C-3.06510417 5.1015625 -3.03255208 3.05078125 -3 1 C-1 0 -1 0 0 0 Z " fill="#AB1B50" transform="translate(38,73)"/>
<path d="M0 0 C1.37562854 1.28965176 2.70766393 2.62689293 4 4 C4 4.66 4 5.32 4 6 C1.69 6 -0.62 6 -3 6 C-2 4 -1 2 0 0 Z " fill="#F4E3ED" transform="translate(99,56)"/>
<path d="M0 0 C1.98 0 3.96 0 6 0 C5.835 0.763125 5.67 1.52625 5.5 2.3125 C4.90854604 5.03596236 4.90854604 5.03596236 5 8 C1.75267068 6.37633534 1.29844864 3.24612161 0 0 Z " fill="#F4E3E9" transform="translate(115,263)"/>
<path d="M0 0 C2.35448165 2.55068845 2.98327924 3.71017358 3.1875 7.25 C3.125625 8.1575 3.06375 9.065 3 10 C1.68 9.01 0.36 8.02 -1 7 C-0.67 6.01 -0.34 5.02 0 4 C0 2.68 0 1.36 0 0 Z " fill="#B21F54" transform="translate(112,258)"/>
<path d="M0 0 C2.0625 2.3125 2.0625 2.3125 4 5 C3.67 5.99 3.34 6.98 3 8 C2.34 8 1.68 8 1 8 C0.26919734 6.02253397 -0.39421747 4.01927511 -1 2 C-0.67 1.34 -0.34 0.68 0 0 Z " fill="#F4ECEF" transform="translate(30,205)"/>
<path d="M0 0 C0 3 0 3 -2 6 C-4.125 6.6875 -4.125 6.6875 -6 7 C-6 6.01 -6 5.02 -6 4 C-3 1.8125 -3 1.8125 0 0 Z " fill="#F4DDE9" transform="translate(160,158)"/>
<path d="M0 0 C-4.39453125 4.00390625 -4.39453125 4.00390625 -6 5 C-6.99 4.67 -7.98 4.34 -9 4 C-8.34 4 -7.68 4 -7 4 C-6.67 2.68 -6.34 1.36 -6 0 C-2.25 -1.125 -2.25 -1.125 0 0 Z " fill="#A22552" transform="translate(158,160)"/>
<path d="M0 0 C0.99 0.66 1.98 1.32 3 2 C-1.95 4.475 -1.95 4.475 -7 7 C-7.66 6.34 -8.32 5.68 -9 5 C-7.02 4.67 -5.04 4.34 -3 4 C-3 3.34 -3 2.68 -3 2 C-2.01 1.34 -1.02 0.68 0 0 Z " fill="#F5E3EA" transform="translate(130,128)"/>
<path d="M0 0 C0.33 0 0.66 0 1 0 C0.88590407 1.45922693 0.75834456 2.91740598 0.625 4.375 C0.55539063 5.18710938 0.48578125 5.99921875 0.4140625 6.8359375 C0 9 0 9 -2 11 C-2 8.36 -2 5.72 -2 3 C-1.34 3 -0.68 3 0 3 C0 2.01 0 1.02 0 0 Z " fill="#961B44" transform="translate(181,121)"/>
<path d="M0 0 C0.66 0.33 1.32 0.66 2 1 C2 1.99 2 2.98 2 4 C1.34 4 0.68 4 0 4 C-0.33 4.99 -0.66 5.98 -1 7 C-1.66 6.34 -2.32 5.68 -3 5 C-3 4.01 -3 3.02 -3 2 C-2.01 1.34 -1.02 0.68 0 0 Z " fill="#BD1B5F" transform="translate(155,44)"/>
<path d="M0 0 C0.66 0.66 1.32 1.32 2 2 C0.02 4.97 0.02 4.97 -2 8 C-2.66 7.01 -3.32 6.02 -4 5 C-3 2 -3 2 0 0 Z " fill="#F3EEF1" transform="translate(76,42)"/>
<path d="M0 0 C2.31 0 4.62 0 7 0 C4.64722731 2.72426311 2.37503669 3.8141763 -1 5 C-0.67 3.35 -0.34 1.7 0 0 Z " fill="#972C52" transform="translate(67,32)"/>
<path d="M0 0 C1.98 0 3.96 0 6 0 C6 0.99 6 1.98 6 3 C5.34 3 4.68 3 4 3 C3.67 3.66 3.34 4.32 3 5 C2.01 4.34 1.02 3.68 0 3 C0 2.01 0 1.02 0 0 Z " fill="#B31D56" transform="translate(129,260)"/>
<path d="M0 0 C2 0 2 0 3.625 1.5 C4.07875 1.995 4.5325 2.49 5 3 C4.34 4.65 3.68 6.3 3 8 C0.4345406 5.4345406 0.45953913 3.52313332 0 0 Z " fill="#EFE5E9" transform="translate(112,254)"/>
<path d="M0 0 C0.66 0 1.32 0 2 0 C2.33 2.64 2.66 5.28 3 8 C2.01 8 1.02 8 0 8 C0 5.36 0 2.72 0 0 Z " fill="#C51B58" transform="translate(190,201)"/>
<path d="M0 0 C0.33 0 0.66 0 1 0 C3.28571429 8.42857143 3.28571429 8.42857143 3 13 C0.95204577 11.0373772 0.05023362 9.5722693 -0.19921875 6.73046875 C-0.18858877 4.48045617 -0.12958525 2.24614438 0 0 Z " fill="#EAD2D5" transform="translate(193,151)"/>
<path d="M0 0 C0.66 0.33 1.32 0.66 2 1 C1.67 2.98 1.34 4.96 1 7 C0.34 7 -0.32 7 -1 7 C-1.33 8.32 -1.66 9.64 -2 11 C-1.125 3.375 -1.125 3.375 0 0 Z " fill="#B14F74" transform="translate(22,140)"/>
<path d="M0 0 C-1.1858237 3.37503669 -2.27573689 5.64722731 -5 8 C-5 5.69 -5 3.38 -5 1 C-2 0 -2 0 0 0 Z " fill="#F2E2E9" transform="translate(32,121)"/>
<path d="M0 0 C0.66 0.33 1.32 0.66 2 1 C1.67 2.32 1.34 3.64 1 5 C-0.65 4.67 -2.3 4.34 -4 4 C-2.68 2.68 -1.36 1.36 0 0 Z " fill="#F3EAED" transform="translate(77,30)"/>
<path d="M0 0 C3.36016893 1.12005631 4.69064913 2.37211797 7 5 C7 5.66 7 6.32 7 7 C5.68 6.67 4.36 6.34 3 6 C2.67 4.68 2.34 3.36 2 2 C1.34 2 0.68 2 0 2 C0 1.34 0 0.68 0 0 Z " fill="#D8105B" transform="translate(62,237)"/>
<path d="M0 0 C0.33 0.66 0.66 1.32 1 2 C0.0625 4.625 0.0625 4.625 -1 7 C-1.99 7 -2.98 7 -4 7 C-3.43628586 3.73045798 -2.50037734 2.17424117 0 0 Z " fill="#EFE7E5" transform="translate(208,196)"/>
<path d="M0 0 C1.4540625 0.0309375 1.4540625 0.0309375 2.9375 0.0625 C0.37758376 2.07386276 -2.10840299 3.69095496 -5.0625 5.0625 C-3.9375 0.08035714 -3.9375 0.08035714 0 0 Z " fill="#F4DAE5" transform="translate(195.0625,192.9375)"/>
<path d="M0 0 C1.32 0.66 2.64 1.32 4 2 C3.67 2.99 3.34 3.98 3 5 C1.68 4.34 0.36 3.68 -1 3 C-0.67 2.01 -0.34 1.02 0 0 Z M-2 4 C-1.67 4.66 -1.34 5.32 -1 6 C-1.99 5.67 -2.98 5.34 -4 5 C-3.34 4.67 -2.68 4.34 -2 4 Z " fill="#B33162" transform="translate(193,163)"/>
<path d="M0 0 C0.66 0 1.32 0 2 0 C2.625 2.8125 2.625 2.8125 3 6 C2.34 6.99 1.68 7.98 1 9 C0.67 6.03 0.34 3.06 0 0 Z " fill="#A31D48" transform="translate(125,276)"/>
<path d="M0 0 C2.0625 0.4375 2.0625 0.4375 4 1 C4 1.99 4 2.98 4 4 C2.68 4.33 1.36 4.66 0 5 C-0.5625 3.0625 -0.5625 3.0625 -1 1 C-0.67 0.67 -0.34 0.34 0 0 Z " fill="#A91B4E" transform="translate(198,197)"/>
<path d="M0 0 C0.66 0.33 1.32 0.66 2 1 C1.75 2.875 1.75 2.875 1 5 C-1.0625 6.25 -1.0625 6.25 -3 7 C-3 6.34 -3 5.68 -3 5 C-2.34 5 -1.68 5 -1 5 C-0.67 3.35 -0.34 1.7 0 0 Z " fill="#AA345E" transform="translate(167,147)"/>
<path d="M0 0 C2.125 0.375 2.125 0.375 4 1 C2.68 2.32 1.36 3.64 0 5 C-0.66 4.01 -1.32 3.02 -2 2 C-1.34 1.34 -0.68 0.68 0 0 Z " fill="#F1F3F5" transform="translate(62,126)"/>
</svg>
